<svg id="a1401b0c-fa88-4594-af8d-3df29ecc80c9" data-name="Слой 1" xmlns="http://www.w3.org/2000/svg" xmlns:xlink="http://www.w3.org/1999/xlink" viewBox="0 0 263 500"><defs><linearGradient id="b2add44e-60ae-415a-9048-b827bfb34ec1" x1="131.585" y1="502" x2="131.585" y2="489.662" gradientTransform="matrix(1 0 0 -1 0 502)" gradientUnits="userSpaceOnUse"><stop offset="0" stop-color="#454545"/><stop offset=".226" stop-color="#999"/><stop offset="1" stop-color="#fff"/></linearGradient><linearGradient id="bea6ef4c-8194-4307-b548-4ea759d96bef" x1="260.598" y1="252.89" x2="251.119" y2="252.89" gradientTransform="matrix(1 0 0 -1 0 502)" gradientUnits="userSpaceOnUse"><stop offset="0" stop-color="#fff" stop-opacity=".01"/><stop offset=".222" stop-color="#bababa"/><stop offset=".547" stop-color="#fff" stop-opacity=".01"/><stop offset="1" stop-color="#fff" stop-opacity=".01"/></linearGradient><linearGradient id="b45d95f1-dfd8-4197-8789-dff13a6f6391" x1="2.573" y1="252.89" x2="12.067" y2="252.89" xlink:href="#bea6ef4c-8194-4307-b548-4ea759d96bef"/><style>.e449e414-9fef-47b7-b544-3916d20996aa{fill-rule:evenodd;fill:#2e423c}.aeacd35f-770d-4c74-bfc3-9a18d7eabb2c{fill:#fbfcfe}</style></defs><path d="M35.844.57h191.597c18.376 0 33.272 14.252 33.272 31.832v435.766c0 17.58-14.896 31.832-33.272 31.832H35.844c-18.375 0-33.271-14.252-33.271-31.832V32.402C2.573 14.822 17.469.57 35.844.57z" style="fill-rule:evenodd;fill:#213648"/><path d="M228.183 0H34.989Q21.46.824 10.034 12.338c4.898-4.273 13.636-9.99 25.188-9.99H227.95c11.551 0 20.289 5.717 25.187 9.99Q241.713.824 228.183 0z" style="isolation:isolate;fill-opacity:.65;opacity:.59556;fill:url(#b2add44e-60ae-415a-9048-b827bfb34ec1);fill-rule:evenodd"/><path d="M255.485 463.198V35.022c0-11.489-4.225-15.736-6.746-18.463s-2.628-4.118.994-2.059 10.865 8.056 10.865 20.522v428.176c0 12.465-7.243 18.462-10.865 20.521-3.622 2.059-3.515.668-.994-2.059s6.746-6.974 6.746-18.462z" style="fill:url(#bea6ef4c-8194-4307-b548-4ea759d96bef);opacity:.75;isolation:isolate;fill-rule:evenodd"/><path d="M7.687 463.198V35.022c0-11.489 4.225-15.736 6.746-18.463s2.628-4.118-.994-2.059S2.573 22.556 2.573 35.022v428.176c0 12.465 7.244 18.462 10.866 20.521 3.622 2.059 3.514.668.994-2.059s-6.746-6.974-6.746-18.462z" style="fill:url(#b45d95f1-dfd8-4197-8789-dff13a6f6391);opacity:.75;isolation:isolate;fill-rule:evenodd"/><path class="e449e414-9fef-47b7-b544-3916d20996aa" d="M0 103.674a2.003 2.003 0 0 1 2.004-2.002h.966a2.003 2.003 0 0 1 2.004 2.002v60.42a2.003 2.003 0 0 1-2.004 2.002h-.966A2.003 2.003 0 0 1 0 164.094zM258.026 156.22a2.004 2.004 0 0 1 2.003-2.002h.967a2.003 2.003 0 0 1 2.004 2.003v42.999a2.002 2.002 0 0 1-2.004 2.002h-.967a2.003 2.003 0 0 1-2.003-2.002z"/><path d="M108.883 12.459H34.335c-11.126 0-19.232 7.572-19.232 17.46v422.872c0 12.895 12.526 24.319 26.69 24.319h179.674c13.644 0 26.69-11.513 26.69-24.319V31.063c0-11.853-8.806-18.534-19.232-18.604h-75.73a14.357 14.357 0 0 0-7.687 7.572c-2.2 5.387-6.623 9.682-11.466 9.682h-5.626c-2.302 0-8.364-2.232-11.434-9.682-3.068-7.45-7.811-7.525-8.099-7.572z" style="fill:#36536b;fill-rule:evenodd"/><path class="aeacd35f-770d-4c74-bfc3-9a18d7eabb2c" d="M48.088 142.162h166.32a5.01 5.01 0 0 1 5.01 5.01v181.202a5.006 5.006 0 0 1-5.007 5.005H48.088a5.006 5.006 0 0 1-5.006-5.005V147.167a5.006 5.006 0 0 1 5.006-5.005z"/><path d="M76.743 260.296v-9.41h3.185a4.52 4.52 0 0 1 1.797.339 2.777 2.777 0 0 1 1.238 1.002 2.819 2.819 0 0 1 .456 1.633 2.913 2.913 0 0 1-.424 1.6 2.702 2.702 0 0 1-1.165 1.01 4.114 4.114 0 0 1-1.74.344h-2.11v3.482zm1.231-4.497h2.09a2.268 2.268 0 0 0 1.57-.54 1.862 1.862 0 0 0 .612-1.47 1.68 1.68 0 0 0-.625-1.419 2.57 2.57 0 0 0-1.615-.481h-2.032zm8.45 4.627a2.421 2.421 0 0 1-1.602-.514 1.765 1.765 0 0 1-.619-1.438 1.896 1.896 0 0 1 .782-1.666 4.657 4.657 0 0 1 2.507-.585l1.205-.033v-.527a1.277 1.277 0 0 0-.378-.976 1.578 1.578 0 0 0-1.146-.365 1.947 1.947 0 0 0-1.022.28 1.248 1.248 0 0 0-.567.866h-1.061a1.878 1.878 0 0 1 .768-1.504 3.208 3.208 0 0 1 1.94-.527 2.981 2.981 0 0 1 1.968.553 1.983 1.983 0 0 1 .657 1.608v4.698h-1.03l-.083-1.262a2.358 2.358 0 0 1-.997 1.093 2.916 2.916 0 0 1-1.322.3zm.365-.866a1.985 1.985 0 0 0 .886-.214 2.237 2.237 0 0 0 .73-.547 1.12 1.12 0 0 0 .292-.715v-1.153l-1.003.02a3.79 3.79 0 0 0-1.739.345 1.116 1.116 0 0 0-.58 1.06 1.086 1.086 0 0 0 .391.892 1.607 1.607 0 0 0 1.023.312zm5.472 2.884a2.641 2.641 0 0 1-.814-.084l-.222-.086v-.78l.685.013a1.845 1.845 0 0 0 .774-.098.954.954 0 0 0 .411-.293 1.656 1.656 0 0 0 .201-.344l.235-.639-2.631-6.566h1.218l1.986 5.193 1.974-5.193h1.178l-2.84 7.237a2.673 2.673 0 0 1-.924 1.301 2.25 2.25 0 0 1-1.23.339zm6.181-2.148v-6.728h1.16v.976a2.581 2.581 0 0 1 .76-.775 2.23 2.23 0 0 1 1.277-.332 2.482 2.482 0 0 1 1.114.28 1.792 1.792 0 0 1 .827.82 2.34 2.34 0 0 1 .847-.794 2.386 2.386 0 0 1 1.205-.306 2.68 2.68 0 0 1 .735.11 1.913 1.913 0 0 1 .717.378 1.854 1.854 0 0 1 .534.749 3.063 3.063 0 0 1 .208 1.223v4.4h-1.211v-4.283a1.914 1.914 0 0 0-.196-.95 1.052 1.052 0 0 0-.514-.468 1.66 1.66 0 0 0-.671-.137 2.015 2.015 0 0 0-.664.124 1.366 1.366 0 0 0-.6.416 1.198 1.198 0 0 0-.247.8v4.497h-1.198v-4.633a1.025 1.025 0 0 0-.215-.664 1.25 1.25 0 0 0-.528-.403 1.55 1.55 0 0 0-.625-.137 1.84 1.84 0 0 0-.696.143 1.427 1.427 0 0 0-.586.43 1.192 1.192 0 0 0-.235.767v4.497zm12.029-3.084a3.085 3.085 0 0 0 .208 1.158 1.867 1.867 0 0 0 .645.82 1.846 1.846 0 0 0 1.088.305 1.988 1.988 0 0 0 1.107-.3 1.34 1.34 0 0 0 .599-.864h1.14a2.285 2.285 0 0 1-.548 1.152 2.743 2.743 0 0 1-1.022.709 3.406 3.406 0 0 1-1.25.234 3.276 3.276 0 0 1-1.661-.41 2.851 2.851 0 0 1-1.12-1.177 3.907 3.907 0 0 1-.404-1.843 4.445 4.445 0 0 1 .364-1.86 2.875 2.875 0 0 1 1.055-1.25 3.026 3.026 0 0 1 1.675-.449 2.702 2.702 0 0 1 2.188.904 3.631 3.631 0 0 1 .761 2.428v.443zm.006-.814h3.66a2.365 2.365 0 0 0-.443-1.458 1.582 1.582 0 0 0-1.354-.592 1.728 1.728 0 0 0-1.048.306 1.805 1.805 0 0 0-.62.775 2.358 2.358 0 0 0-.195.969zm6.373 3.898v-6.729h1.165v.977a2.222 2.222 0 0 1 .776-.75 2.51 2.51 0 0 1 1.334-.325 2.694 2.694 0 0 1 1.173.255 1.938 1.938 0 0 1 .86.794 2.614 2.614 0 0 1 .325 1.38v4.398h-1.204v-4.282a1.389 1.389 0 0 0-1.485-1.549 2.417 2.417 0 0 0-.854.15 1.462 1.462 0 0 0-.644.442 1.108 1.108 0 0 0-.248.742v4.497zm10.52-5.85h-1.518v4.184c0 .36.057.582.17.664a1.268 1.268 0 0 0 .65.117h.737v.807a2.057 2.057 0 0 1-.378.078 4.817 4.817 0 0 1-.619.033 1.829 1.829 0 0 1-1.412-.423 1.869 1.869 0 0 1-.359-1.237v-4.224h-1.094v-.878h1.127l.293-1.959h.885v1.952h1.518zm7.044 5.98a2.953 2.953 0 0 1-2.248-.892 3.601 3.601 0 0 1-.846-2.577 4.447 4.447 0 0 1 .358-1.848 2.752 2.752 0 0 1 1.048-1.23 3.06 3.06 0 0 1 1.688-.442 2.872 2.872 0 0 1 2.227.911 3.734 3.734 0 0 1 .833 2.61 4.366 4.366 0 0 1-.351 1.808 2.737 2.737 0 0 1-1.03 1.224 3.04 3.04 0 0 1-1.68.436zm0-.95a1.598 1.598 0 0 0 1.386-.677 3.189 3.189 0 0 0 .482-1.868 3.993 3.993 0 0 0-.195-1.294 1.937 1.937 0 0 0-.6-.918 1.83 1.83 0 0 0-2.48.338 3.137 3.137 0 0 0-.49 1.874 4.007 4.007 0 0 0 .196 1.289 1.952 1.952 0 0 0 .612.918 1.673 1.673 0 0 0 1.089.338zm8.085-5.909v.878h-1.635v5.851h-1.212v-5.85h-1.42v-.879h1.42v-1.04a1.447 1.447 0 0 1 1.636-1.64h1.269l.007.851h-1.01a.63.63 0 0 0-.56.222 1.216 1.216 0 0 0-.15.67v.938zm7.083-4.028h1.648v1.295a3.57 3.57 0 0 1 1.406.54 2.754 2.754 0 0 1 .906.97 2.41 2.41 0 0 1 .305 1.242l-1.92.033a1.823 1.823 0 0 0-.417-.983 1.406 1.406 0 0 0-1.081-.357 2.047 2.047 0 0 0-1.224.325.972.972 0 0 0-.45.826.823.823 0 0 0 .273.651 2.878 2.878 0 0 0 1.05.437l1.516.37a3.135 3.135 0 0 1 1.85 1.054 2.846 2.846 0 0 1 .573 1.796 2.305 2.305 0 0 1-.762 1.77 3.677 3.677 0 0 1-2.065.866v1.166h-1.64v-1.159a4.131 4.131 0 0 1-2.163-.827 2.712 2.712 0 0 1-.95-1.907l1.98-.039a1.538 1.538 0 0 0 .67.983 2.378 2.378 0 0 0 1.303.332 1.888 1.888 0 0 0 1.152-.332 1 1 0 0 0 .456-.84.912.912 0 0 0-.332-.774 2.619 2.619 0 0 0-1.023-.416l-1.543-.332a3.303 3.303 0 0 1-1.726-.853 2.356 2.356 0 0 1-.657-1.725 2.467 2.467 0 0 1 .358-1.353 2.906 2.906 0 0 1 1.015-.97 4.176 4.176 0 0 1 1.492-.5zm9.006 10.9a4.022 4.022 0 0 1-1.648-.338 3.229 3.229 0 0 1-1.237-.95 2.599 2.599 0 0 1-.54-1.445h1.81a1.565 1.565 0 0 0 .521.891 1.525 1.525 0 0 0 1.016.339 2.184 2.184 0 0 0 1.186-.319 1.909 1.909 0 0 0 .768-1.015 4.418 4.418 0 0 0 .182-1.822 2.046 2.046 0 0 1-.853.833 2.846 2.846 0 0 1-1.36.305 3.875 3.875 0 0 1-1.701-.357 2.846 2.846 0 0 1-1.16-1.028 2.948 2.948 0 0 1-.416-1.588 3.023 3.023 0 0 1 1.68-2.78 4.012 4.012 0 0 1 1.863-.409 3.66 3.66 0 0 1 2.065.573 3.587 3.587 0 0 1 1.334 1.614 5.93 5.93 0 0 1 .47 2.453 5.771 5.771 0 0 1-1.062 3.787 3.614 3.614 0 0 1-2.917 1.256zm.17-5.03a1.777 1.777 0 0 0 .768-.176 1.92 1.92 0 0 0 .618-.455.85.85 0 0 0 .242-.567 2.19 2.19 0 0 0-.45-1.483 1.57 1.57 0 0 0-2.292-.072 1.67 1.67 0 0 0-.443 1.204 1.507 1.507 0 0 0 .43 1.145 1.579 1.579 0 0 0 1.127.404zm5.02 4.887v-1.418a2.674 2.674 0 0 1 .268-1.237 3.001 3.001 0 0 1 .703-.91 5.76 5.76 0 0 1 .964-.678q.528-.299 1.055-.553.528-.26.964-.527a2.722 2.722 0 0 0 .71-.593 1.256 1.256 0 0 0-.131-1.691 1.546 1.546 0 0 0-1.074-.358 1.728 1.728 0 0 0-1.818 1.646h-1.816a3.307 3.307 0 0 1 .417-1.627 2.918 2.918 0 0 1 1.224-1.164 4.351 4.351 0 0 1 2.045-.43 4.244 4.244 0 0 1 1.816.358 2.77 2.77 0 0 1 1.186.996 2.657 2.657 0 0 1 .416 1.49 2.684 2.684 0 0 1-.26 1.23 2.889 2.889 0 0 1-.69.878 5.287 5.287 0 0 1-.944.638q-.516.273-1.03.507a10.474 10.474 0 0 0-.937.476 2.478 2.478 0 0 0-.69.546 1.092 1.092 0 0 0-.26.735v.085h4.798v1.601zm11.64-9.54a3.167 3.167 0 0 1 2.65 1.256 7.153 7.153 0 0 1 .007 7.184 3.482 3.482 0 0 1-5.335 0 7.179 7.179 0 0 1 .013-7.184 3.193 3.193 0 0 1 2.664-1.256zm0 8.128a1.29 1.29 0 0 0 1.23-.748 5.849 5.849 0 0 0 .39-2.52 6.107 6.107 0 0 0-.396-2.582 1.302 1.302 0 0 0-1.232-.781 1.325 1.325 0 0 0-1.243.787 6.019 6.019 0 0 0-.404 2.577 5.679 5.679 0 0 0 .404 2.512 1.326 1.326 0 0 0 1.25.755zm8.887-7.998h1.87v5.734h1.452v1.594h-1.452v2.082h-1.83l.006-2.082h-4.337v-1.562zm-2.532 5.734h2.578v-3.45zM83.49 268.913v1.25h-1.23v-1.25zm-.026 2.675v6.729h-1.166v-6.729zm4.41 6.859a3.764 3.764 0 0 1-1.31-.221 2.456 2.456 0 0 1-1.003-.677 2.239 2.239 0 0 1-.495-1.192h1.094a1.36 1.36 0 0 0 .593.892 2.026 2.026 0 0 0 1.113.3 2.082 2.082 0 0 0 1.094-.254.85.85 0 0 0 .417-.781q0-.71-.892-.924l-1.393-.345a3.094 3.094 0 0 1-1.31-.612 1.459 1.459 0 0 1-.482-1.165 1.808 1.808 0 0 1 .638-1.445 2.85 2.85 0 0 1 1.928-.565 2.907 2.907 0 0 1 1.765.494 1.731 1.731 0 0 1 .704 1.438h-1.062a1.125 1.125 0 0 0-.436-.76 1.55 1.55 0 0 0-.984-.287 1.908 1.908 0 0 0-1.048.26.869.869 0 0 0-.404.794.661.661 0 0 0 .287.566 2.532 2.532 0 0 0 .846.338l1.348.34a2.371 2.371 0 0 1 .964.461 1.656 1.656 0 0 1 .482.657 1.933 1.933 0 0 1 .137.69 1.756 1.756 0 0 1-.684 1.464 3.033 3.033 0 0 1-1.908.534zm9.542-6.99a2.768 2.768 0 0 1 1.83.619 2.462 2.462 0 0 1 .88 1.64h-1.069a1.54 1.54 0 0 0-.514-.905 1.604 1.604 0 0 0-1.12-.384 1.785 1.785 0 0 0-1.406.625 2.866 2.866 0 0 0-.541 1.913 3.185 3.185 0 0 0 .494 1.868 1.698 1.698 0 0 0 1.472.696 1.58 1.58 0 0 0 1.114-.39 1.56 1.56 0 0 0 .508-.899h1.048a2.367 2.367 0 0 1-.878 1.614 2.82 2.82 0 0 1-1.818.593 3.182 3.182 0 0 1-1.608-.398 2.746 2.746 0 0 1-1.094-1.171 4.117 4.117 0 0 1-.398-1.9 4.43 4.43 0 0 1 .36-1.841 2.826 2.826 0 0 1 1.054-1.237 3.075 3.075 0 0 1 1.686-.442zm6.914 6.99a2.952 2.952 0 0 1-2.246-.892 3.6 3.6 0 0 1-.847-2.577 4.463 4.463 0 0 1 .358-1.848 2.76 2.76 0 0 1 1.05-1.23 3.056 3.056 0 0 1 1.685-.442 2.87 2.87 0 0 1 2.228.91 3.729 3.729 0 0 1 .833 2.61 4.366 4.366 0 0 1-.352 1.809 2.73 2.73 0 0 1-1.029 1.223 3.035 3.035 0 0 1-1.68.437zm0-.95a1.598 1.598 0 0 0 1.388-.677 3.189 3.189 0 0 0 .482-1.868 3.993 3.993 0 0 0-.195-1.295 1.937 1.937 0 0 0-.6-.918 1.83 1.83 0 0 0-2.481.339 3.137 3.137 0 0 0-.488 1.874 4.008 4.008 0 0 0 .195 1.288 1.952 1.952 0 0 0 .612.918 1.672 1.672 0 0 0 1.087.339zm4.538.82v-6.729h1.16v.976a2.593 2.593 0 0 1 .76-.775 2.23 2.23 0 0 1 1.277-.331 2.48 2.48 0 0 1 1.114.28 1.787 1.787 0 0 1 .827.82 2.34 2.34 0 0 1 .846-.795 2.389 2.389 0 0 1 1.206-.305 2.675 2.675 0 0 1 .735.11 1.913 1.913 0 0 1 .716.377 1.854 1.854 0 0 1 .534.75 3.063 3.063 0 0 1 .209 1.223v4.399h-1.212v-4.282a1.914 1.914 0 0 0-.195-.95 1.053 1.053 0 0 0-.514-.469 1.656 1.656 0 0 0-.671-.137 2.015 2.015 0 0 0-.664.124 1.366 1.366 0 0 0-.6.417 1.203 1.203 0 0 0-.247.8v4.497h-1.198v-4.634a1.025 1.025 0 0 0-.215-.663 1.243 1.243 0 0 0-.528-.404 1.55 1.55 0 0 0-.625-.137 1.844 1.844 0 0 0-.696.143 1.427 1.427 0 0 0-.586.43 1.192 1.192 0 0 0-.235.768v4.497zm11.17 2.095v-8.824h1.197l.013 1.171a3.129 3.129 0 0 1 .436-.572 2.368 2.368 0 0 1 1.779-.73 2.544 2.544 0 0 1 1.966.834 3.712 3.712 0 0 1 .762 2.57 4.156 4.156 0 0 1-.749 2.662 2.529 2.529 0 0 1-2.077.924 2.224 2.224 0 0 1-1.022-.215 2.304 2.304 0 0 1-.685-.534 3.013 3.013 0 0 1-.41-.599v3.313zm3.1-2.902a1.69 1.69 0 0 0 1.36-.632 3.829 3.829 0 0 0 .046-3.8 1.793 1.793 0 0 0-2.827.013 3.113 3.113 0 0 0-.482 1.809 3.829 3.829 0 0 0 .215 1.314 2.149 2.149 0 0 0 .638.944 1.589 1.589 0 0 0 1.05.352zm6.232.892a1.923 1.923 0 0 1-1.094-.255 1.247 1.247 0 0 1-.488-.67 3.274 3.274 0 0 1-.117-.891v-7.94h1.185v7.823a1.25 1.25 0 0 0 .195.767.755.755 0 0 0 .56.274l.365.006v.78a1.987 1.987 0 0 1-.606.106zm2.824-3.17a3.104 3.104 0 0 0 .209 1.158 1.869 1.869 0 0 0 .645.82 1.845 1.845 0 0 0 1.087.306 1.986 1.986 0 0 0 1.107-.3 1.337 1.337 0 0 0 .6-.865h1.14a2.302 2.302 0 0 1-.548 1.153 2.738 2.738 0 0 1-1.023.709 3.398 3.398 0 0 1-1.25.234 3.272 3.272 0 0 1-1.66-.41 2.845 2.845 0 0 1-1.12-1.178 3.907 3.907 0 0 1-.404-1.842 4.445 4.445 0 0 1 .365-1.861 2.862 2.862 0 0 1 1.055-1.25 3.02 3.02 0 0 1 1.673-.448 2.702 2.702 0 0 1 2.188.904 3.632 3.632 0 0 1 .763 2.428v.442zm.007-.814h3.66a2.371 2.371 0 0 0-.443-1.457 1.584 1.584 0 0 0-1.354-.592 1.731 1.731 0 0 0-1.05.305 1.81 1.81 0 0 0-.617.775 2.326 2.326 0 0 0-.196.97zm9.578-1.952h-1.517v4.185q0 .54.169.664a1.266 1.266 0 0 0 .651.117h.736v.807a2.038 2.038 0 0 1-.378.078 4.79 4.79 0 0 1-.618.033 1.83 1.83 0 0 1-1.414-.424 1.869 1.869 0 0 1-.358-1.236v-4.224h-1.094v-.878h1.126l.294-1.96h.886v1.953h1.517zm2.312 2.766a3.085 3.085 0 0 0 .208 1.158 1.867 1.867 0 0 0 .645.82 1.846 1.846 0 0 0 1.088.306 1.988 1.988 0 0 0 1.107-.3 1.34 1.34 0 0 0 .599-.865h1.139a2.285 2.285 0 0 1-.547 1.153 2.743 2.743 0 0 1-1.022.709 3.406 3.406 0 0 1-1.25.234 3.276 3.276 0 0 1-1.662-.41 2.851 2.851 0 0 1-1.12-1.178 3.907 3.907 0 0 1-.403-1.842 4.445 4.445 0 0 1 .364-1.861 2.875 2.875 0 0 1 1.055-1.25 3.026 3.026 0 0 1 1.674-.448 2.702 2.702 0 0 1 2.189.904 3.631 3.631 0 0 1 .761 2.428v.442zm.006-.814h3.66a2.365 2.365 0 0 0-.443-1.457 1.582 1.582 0 0 0-1.354-.592 1.728 1.728 0 0 0-1.048.305 1.805 1.805 0 0 0-.62.775 2.358 2.358 0 0 0-.195.97zm8.802 4.029a2.602 2.602 0 0 1-2.084-.898 3.955 3.955 0 0 1-.762-2.623 4.167 4.167 0 0 1 .69-2.518 2.394 2.394 0 0 1 2.064-.95 2.57 2.57 0 0 1 1.089.208 2.42 2.42 0 0 1 .729.488 2.09 2.09 0 0 1 .39.501v-4.008h1.212v9.67h-.919l-.13-1.38a2.697 2.697 0 0 1-.319.618 1.985 1.985 0 0 1-.703.625 2.536 2.536 0 0 1-1.257.267zm.215-.924a1.661 1.661 0 0 0 1.459-.619 3.609 3.609 0 0 0 .443-2.036 3.34 3.34 0 0 0-.443-1.822 1.59 1.59 0 0 0-1.433-.651 1.732 1.732 0 0 0-1.354.592 2.79 2.79 0 0 0-.521 1.88 3.48 3.48 0 0 0 .468 1.959 1.566 1.566 0 0 0 1.381.697zm9.766.924a2.421 2.421 0 0 1-1.602-.515 1.767 1.767 0 0 1-.619-1.437 1.896 1.896 0 0 1 .782-1.666 4.653 4.653 0 0 1 2.507-.586l1.205-.033v-.527a1.28 1.28 0 0 0-.378-.976 1.58 1.58 0 0 0-1.146-.364 1.948 1.948 0 0 0-1.023.28 1.247 1.247 0 0 0-.566.865h-1.062a1.88 1.88 0 0 1 .768-1.504 3.21 3.21 0 0 1 1.941-.526 2.98 2.98 0 0 1 1.967.553 1.983 1.983 0 0 1 .658 1.607v4.699h-1.029l-.085-1.263a2.361 2.361 0 0 1-.996 1.094 2.924 2.924 0 0 1-1.322.299zm.364-.866a1.985 1.985 0 0 0 .886-.214 2.227 2.227 0 0 0 .73-.547 1.127 1.127 0 0 0 .293-.716v-1.152l-1.003.02a3.792 3.792 0 0 0-1.74.344 1.117 1.117 0 0 0-.578 1.061 1.086 1.086 0 0 0 .39.891 1.603 1.603 0 0 0 1.022.313zm5.025.736v-6.729h1.166v.976a2.21 2.21 0 0 1 .775-.749 2.51 2.51 0 0 1 1.335-.325 2.7 2.7 0 0 1 1.172.254 1.949 1.949 0 0 1 .86.794 2.623 2.623 0 0 1 .326 1.38v4.399h-1.206v-4.282a1.389 1.389 0 0 0-1.485-1.549 2.412 2.412 0 0 0-.852.15 1.466 1.466 0 0 0-.645.442 1.113 1.113 0 0 0-.248.742v4.497zm9.847.13a2.6 2.6 0 0 1-2.084-.898 3.955 3.955 0 0 1-.763-2.623 4.174 4.174 0 0 1 .69-2.518 2.397 2.397 0 0 1 2.065-.95 2.568 2.568 0 0 1 1.087.208 2.42 2.42 0 0 1 .73.488 2.091 2.091 0 0 1 .39.501v-4.008h1.212v9.67h-.918l-.13-1.38a2.748 2.748 0 0 1-.32.618 1.985 1.985 0 0 1-.703.624 2.534 2.534 0 0 1-1.256.268zm.214-.924a1.66 1.66 0 0 0 1.459-.619 3.6 3.6 0 0 0 .443-2.036 3.341 3.341 0 0 0-.443-1.822 1.59 1.59 0 0 0-1.433-.651 1.733 1.733 0 0 0-1.355.592 2.79 2.79 0 0 0-.52 1.88 3.48 3.48 0 0 0 .468 1.959 1.567 1.567 0 0 0 1.381.697zm-115.188 20.91v-8.824h1.198l.013 1.17a3.094 3.094 0 0 1 .437-.572 2.363 2.363 0 0 1 1.777-.729 2.542 2.542 0 0 1 1.967.833 3.712 3.712 0 0 1 .763 2.57 4.156 4.156 0 0 1-.75 2.662 2.526 2.526 0 0 1-2.077.924 2.228 2.228 0 0 1-1.023-.215 2.3 2.3 0 0 1-.683-.534 2.98 2.98 0 0 1-.41-.598v3.313zm3.1-2.903a1.691 1.691 0 0 0 1.361-.632 3.832 3.832 0 0 0 .046-3.8 1.793 1.793 0 0 0-2.827.013 3.113 3.113 0 0 0-.482 1.81 3.829 3.829 0 0 0 .216 1.314 2.14 2.14 0 0 0 .638.944 1.584 1.584 0 0 0 1.048.351zm4.533.807v-6.729h1.147v1.295a2.016 2.016 0 0 1 .8-1.073 2.186 2.186 0 0 1 1.192-.352 1.891 1.891 0 0 1 .287.02.664.664 0 0 1 .227.064v1.166a.767.767 0 0 0-.253-.06 2.006 2.006 0 0 0-.255-.018 2.253 2.253 0 0 0-1.373.305 1.3 1.3 0 0 0-.573 1.197v4.185zm7.474.13a2.955 2.955 0 0 1-2.248-.892 3.601 3.601 0 0 1-.846-2.577 4.463 4.463 0 0 1 .359-1.848 2.752 2.752 0 0 1 1.048-1.23 3.062 3.062 0 0 1 1.687-.442 2.872 2.872 0 0 1 2.227.911 3.729 3.729 0 0 1 .834 2.61 4.366 4.366 0 0 1-.352 1.808 2.737 2.737 0 0 1-1.03 1.224 3.04 3.04 0 0 1-1.68.436zm0-.95a1.597 1.597 0 0 0 1.386-.677 3.189 3.189 0 0 0 .482-1.868 3.994 3.994 0 0 0-.195-1.294 1.93 1.93 0 0 0-.6-.918 1.83 1.83 0 0 0-2.48.338 3.137 3.137 0 0 0-.489 1.874 4.008 4.008 0 0 0 .195 1.289 1.952 1.952 0 0 0 .613.918 1.676 1.676 0 0 0 1.088.338zm7.22-6.039a2.768 2.768 0 0 1 1.83.618 2.462 2.462 0 0 1 .879 1.64H87.11a1.535 1.535 0 0 0-.514-.904 1.604 1.604 0 0 0-1.12-.385 1.785 1.785 0 0 0-1.407.625 2.866 2.866 0 0 0-.541 1.913 3.185 3.185 0 0 0 .495 1.868 1.699 1.699 0 0 0 1.472.696 1.578 1.578 0 0 0 1.114-.39 1.56 1.56 0 0 0 .508-.898h1.048a2.363 2.363 0 0 1-.879 1.614 2.82 2.82 0 0 1-1.817.592 3.184 3.184 0 0 1-1.608-.397 2.746 2.746 0 0 1-1.095-1.171 4.117 4.117 0 0 1-.397-1.9 4.43 4.43 0 0 1 .358-1.842 2.826 2.826 0 0 1 1.055-1.236 3.077 3.077 0 0 1 1.686-.443zm5.097 3.775a3.085 3.085 0 0 0 .209 1.158 1.869 1.869 0 0 0 .645.82 1.844 1.844 0 0 0 1.087.305 1.988 1.988 0 0 0 1.107-.299 1.34 1.34 0 0 0 .6-.865h1.14a2.302 2.302 0 0 1-.548 1.152 2.739 2.739 0 0 1-1.023.71 3.406 3.406 0 0 1-1.25.233 3.272 3.272 0 0 1-1.66-.41 2.845 2.845 0 0 1-1.12-1.177 3.907 3.907 0 0 1-.404-1.842 4.445 4.445 0 0 1 .365-1.862 2.862 2.862 0 0 1 1.055-1.25 3.02 3.02 0 0 1 1.673-.448 2.702 2.702 0 0 1 2.188.904 3.632 3.632 0 0 1 .762 2.428v.443zm.007-.814h3.66a2.371 2.371 0 0 0-.443-1.458 1.584 1.584 0 0 0-1.354-.592 1.729 1.729 0 0 0-1.05.306 1.81 1.81 0 0 0-.617.775 2.326 2.326 0 0 0-.196.969zm8.712 4.028a3.755 3.755 0 0 1-1.309-.221 2.443 2.443 0 0 1-1.003-.677 2.231 2.231 0 0 1-.495-1.191h1.094a1.355 1.355 0 0 0 .593.892 2.03 2.03 0 0 0 1.114.3 2.087 2.087 0 0 0 1.094-.255.851.851 0 0 0 .417-.78q0-.71-.893-.925l-1.394-.344a3.09 3.09 0 0 1-1.308-.612 1.456 1.456 0 0 1-.482-1.165 1.805 1.805 0 0 1 .638-1.445 2.848 2.848 0 0 1 1.928-.566 2.903 2.903 0 0 1 1.764.495 1.731 1.731 0 0 1 .703 1.438h-1.06a1.13 1.13 0 0 0-.437-.761 1.549 1.549 0 0 0-.983-.287 1.911 1.911 0 0 0-1.05.26.87.87 0 0 0-.403.795.661.661 0 0 0 .286.565 2.532 2.532 0 0 0 .847.339l1.349.339a2.384 2.384 0 0 1 .963.461 1.665 1.665 0 0 1 .482.657 1.93 1.93 0 0 1 .137.69 1.755 1.755 0 0 1-.684 1.465 3.036 3.036 0 0 1-1.908.533zm6.45 0a3.755 3.755 0 0 1-1.309-.221 2.443 2.443 0 0 1-1.002-.677 2.231 2.231 0 0 1-.495-1.191h1.094a1.355 1.355 0 0 0 .592.892 2.03 2.03 0 0 0 1.114.3 2.087 2.087 0 0 0 1.094-.255.851.851 0 0 0 .417-.78q0-.71-.893-.925l-1.394-.344a3.09 3.09 0 0 1-1.308-.612 1.456 1.456 0 0 1-.482-1.165 1.805 1.805 0 0 1 .638-1.445 2.848 2.848 0 0 1 1.928-.566 2.903 2.903 0 0 1 1.764.495 1.731 1.731 0 0 1 .704 1.438h-1.061a1.13 1.13 0 0 0-.437-.761 1.549 1.549 0 0 0-.983-.287 1.911 1.911 0 0 0-1.05.26.87.87 0 0 0-.403.795.661.661 0 0 0 .287.565 2.533 2.533 0 0 0 .846.339l1.349.339a2.384 2.384 0 0 1 .964.461 1.665 1.665 0 0 1 .482.657 1.93 1.93 0 0 1 .136.69 1.755 1.755 0 0 1-.683 1.465 3.036 3.036 0 0 1-1.909.533zm5.035-3.214a3.085 3.085 0 0 0 .208 1.158 1.75 1.75 0 0 0 1.732 1.125 1.988 1.988 0 0 0 1.107-.3 1.34 1.34 0 0 0 .6-.864h1.139a2.285 2.285 0 0 1-.547 1.152 2.727 2.727 0 0 1-1.022.709 3.406 3.406 0 0 1-1.25.234 3.278 3.278 0 0 1-1.662-.41 2.858 2.858 0 0 1-1.12-1.178 3.92 3.92 0 0 1-.404-1.842 4.46 4.46 0 0 1 .365-1.86 2.875 2.875 0 0 1 1.055-1.25 3.026 3.026 0 0 1 1.674-.449 2.702 2.702 0 0 1 2.188.904 3.631 3.631 0 0 1 .762 2.428v.443zm.006-.814h3.66a2.365 2.365 0 0 0-.443-1.458 1.581 1.581 0 0 0-1.355-.592 1.728 1.728 0 0 0-1.048.306 1.82 1.82 0 0 0-.62.775 2.358 2.358 0 0 0-.194.969zm8.802 4.028a2.6 2.6 0 0 1-2.084-.898 3.955 3.955 0 0 1-.762-2.623 4.174 4.174 0 0 1 .69-2.518 2.397 2.397 0 0 1 2.065-.95 2.568 2.568 0 0 1 1.087.209 2.42 2.42 0 0 1 .73.487 2.091 2.091 0 0 1 .39.502v-4.009h1.212v9.67h-.918l-.13-1.38a2.749 2.749 0 0 1-.32.618 1.985 1.985 0 0 1-.703.625 2.534 2.534 0 0 1-1.257.267zm.215-.924a1.66 1.66 0 0 0 1.458-.618 3.6 3.6 0 0 0 .443-2.037 3.34 3.34 0 0 0-.443-1.822 1.589 1.589 0 0 0-1.432-.65 1.733 1.733 0 0 0-1.355.591 2.79 2.79 0 0 0-.52 1.881 3.48 3.48 0 0 0 .468 1.958 1.567 1.567 0 0 0 1.38.697zm10.293.924a3.755 3.755 0 0 1-1.308-.221 2.443 2.443 0 0 1-1.003-.677 2.231 2.231 0 0 1-.495-1.191h1.094a1.358 1.358 0 0 0 .592.892 2.03 2.03 0 0 0 1.114.3 2.087 2.087 0 0 0 1.094-.255.851.851 0 0 0 .417-.78q0-.71-.893-.925l-1.393-.344a3.09 3.09 0 0 1-1.309-.612 1.456 1.456 0 0 1-.482-1.165 1.805 1.805 0 0 1 .639-1.445 2.848 2.848 0 0 1 1.927-.566 2.903 2.903 0 0 1 1.765.495 1.731 1.731 0 0 1 .703 1.438h-1.061a1.13 1.13 0 0 0-.437-.761 1.547 1.547 0 0 0-.983-.287 1.911 1.911 0 0 0-1.049.26.871.871 0 0 0-.403.795.664.664 0 0 0 .286.565 2.541 2.541 0 0 0 .847.339l1.348.339a2.385 2.385 0 0 1 .964.462 1.665 1.665 0 0 1 .482.656 1.93 1.93 0 0 1 .136.69 1.755 1.755 0 0 1-.683 1.465 3.036 3.036 0 0 1-1.909.533zm6.65 0a3.283 3.283 0 0 1-1.29-.26 2.242 2.242 0 0 1-.943-.768 2.163 2.163 0 0 1-.352-1.262v-4.569h1.204v4.445a1.454 1.454 0 0 0 .404 1.067 1.674 1.674 0 0 0 1.231.41 1.769 1.769 0 0 0 1.192-.384 1.441 1.441 0 0 0 .455-1.159v-4.379h1.199v6.73h-.957l-.124-1.29a1.64 1.64 0 0 1-.743 1.094 2.414 2.414 0 0 1-1.276.325zm7.561-6.989a2.768 2.768 0 0 1 1.83.618 2.462 2.462 0 0 1 .88 1.64h-1.069a1.53 1.53 0 0 0-.514-.904 1.602 1.602 0 0 0-1.12-.385 1.784 1.784 0 0 0-1.406.625 2.866 2.866 0 0 0-.541 1.913 3.185 3.185 0 0 0 .495 1.868 1.699 1.699 0 0 0 1.471.696 1.578 1.578 0 0 0 1.114-.39 1.55 1.55 0 0 0 .508-.898h1.048a2.363 2.363 0 0 1-.878 1.614 2.82 2.82 0 0 1-1.818.592 3.187 3.187 0 0 1-1.608-.397 2.746 2.746 0 0 1-1.094-1.172 4.13 4.13 0 0 1-.398-1.9 4.445 4.445 0 0 1 .36-1.84 2.839 2.839 0 0 1 1.054-1.237 3.08 3.08 0 0 1 1.686-.443zm6.921 0a2.768 2.768 0 0 1 1.83.618 2.462 2.462 0 0 1 .88 1.64h-1.068a1.535 1.535 0 0 0-.514-.904 1.604 1.604 0 0 0-1.12-.385 1.785 1.785 0 0 0-1.407.625 2.866 2.866 0 0 0-.541 1.913 3.185 3.185 0 0 0 .495 1.868 1.699 1.699 0 0 0 1.471.696 1.578 1.578 0 0 0 1.115-.39 1.56 1.56 0 0 0 .508-.898h1.048a2.363 2.363 0 0 1-.88 1.614 2.82 2.82 0 0 1-1.817.592 3.184 3.184 0 0 1-1.608-.397 2.746 2.746 0 0 1-1.094-1.172 4.117 4.117 0 0 1-.397-1.9 4.43 4.43 0 0 1 .358-1.84 2.826 2.826 0 0 1 1.055-1.237 3.077 3.077 0 0 1 1.686-.443zm5.098 3.775a3.085 3.085 0 0 0 .209 1.158 1.869 1.869 0 0 0 .645.82 1.844 1.844 0 0 0 1.087.305 1.988 1.988 0 0 0 1.107-.3 1.34 1.34 0 0 0 .599-.864h1.14a2.302 2.302 0 0 1-.547 1.152 2.739 2.739 0 0 1-1.023.709 3.406 3.406 0 0 1-1.25.234 3.272 3.272 0 0 1-1.66-.41 2.845 2.845 0 0 1-1.12-1.178 3.907 3.907 0 0 1-.404-1.842 4.445 4.445 0 0 1 .364-1.86 2.862 2.862 0 0 1 1.055-1.25 3.02 3.02 0 0 1 1.674-.449 2.702 2.702 0 0 1 2.188.904 3.632 3.632 0 0 1 .762 2.428v.443zm.007-.814h3.66a2.371 2.371 0 0 0-.443-1.458 1.584 1.584 0 0 0-1.354-.592 1.729 1.729 0 0 0-1.05.306 1.81 1.81 0 0 0-.617.775 2.326 2.326 0 0 0-.196.969zm8.712 4.028a3.755 3.755 0 0 1-1.309-.221 2.443 2.443 0 0 1-1.003-.677 2.231 2.231 0 0 1-.495-1.191h1.094a1.355 1.355 0 0 0 .593.892 2.03 2.03 0 0 0 1.114.3 2.087 2.087 0 0 0 1.094-.255.851.851 0 0 0 .417-.78q0-.71-.893-.925l-1.394-.344a3.09 3.09 0 0 1-1.308-.612 1.456 1.456 0 0 1-.482-1.165 1.805 1.805 0 0 1 .638-1.445 2.848 2.848 0 0 1 1.928-.566 2.903 2.903 0 0 1 1.764.495 1.731 1.731 0 0 1 .703 1.438h-1.06a1.13 1.13 0 0 0-.437-.761 1.549 1.549 0 0 0-.983-.287 1.911 1.911 0 0 0-1.05.26.87.87 0 0 0-.403.795.661.661 0 0 0 .286.565 2.532 2.532 0 0 0 .847.339l1.349.339a2.384 2.384 0 0 1 .963.461 1.665 1.665 0 0 1 .482.657 1.93 1.93 0 0 1 .137.69 1.755 1.755 0 0 1-.684 1.465 3.036 3.036 0 0 1-1.908.533zm6.45 0a3.755 3.755 0 0 1-1.309-.221 2.443 2.443 0 0 1-1.002-.677 2.231 2.231 0 0 1-.495-1.191h1.094a1.355 1.355 0 0 0 .592.892 2.03 2.03 0 0 0 1.114.3 2.087 2.087 0 0 0 1.094-.255.851.851 0 0 0 .417-.78q0-.71-.893-.925l-1.394-.344a3.09 3.09 0 0 1-1.308-.612 1.456 1.456 0 0 1-.482-1.165 1.805 1.805 0 0 1 .638-1.445 2.848 2.848 0 0 1 1.928-.566 2.903 2.903 0 0 1 1.764.495 1.731 1.731 0 0 1 .704 1.438h-1.061a1.13 1.13 0 0 0-.437-.761 1.549 1.549 0 0 0-.983-.287 1.911 1.911 0 0 0-1.05.26.87.87 0 0 0-.403.795.661.661 0 0 0 .287.565 2.533 2.533 0 0 0 .846.339l1.349.339a2.384 2.384 0 0 1 .964.461 1.665 1.665 0 0 1 .482.657 1.93 1.93 0 0 1 .136.69 1.755 1.755 0 0 1-.683 1.465 3.036 3.036 0 0 1-1.909.533zm7.978-6.859v.878h-1.635v5.851h-1.211v-5.85h-1.42v-.879h1.42v-1.04a1.447 1.447 0 0 1 1.635-1.64h1.27l.006.851h-1.01a.63.63 0 0 0-.56.222 1.216 1.216 0 0 0-.15.67v.937zm3.862 6.86a3.283 3.283 0 0 1-1.289-.261 2.242 2.242 0 0 1-.944-.768 2.163 2.163 0 0 1-.351-1.262v-4.569h1.204v4.445a1.458 1.458 0 0 0 .404 1.067 1.674 1.674 0 0 0 1.23.41 1.769 1.769 0 0 0 1.192-.384 1.438 1.438 0 0 0 .456-1.159v-4.379h1.198v6.73h-.956l-.125-1.29a1.64 1.64 0 0 1-.742 1.094 2.412 2.412 0 0 1-1.276.325zm6.668-.046a1.924 1.924 0 0 1-1.094-.254 1.247 1.247 0 0 1-.488-.67 3.274 3.274 0 0 1-.117-.892v-7.939h1.185v7.822a1.251 1.251 0 0 0 .196.768.755.755 0 0 0 .56.273l.364.006v.781a1.986 1.986 0 0 1-.606.105zm3.589 0a1.92 1.92 0 0 1-1.094-.254 1.248 1.248 0 0 1-.49-.67 3.274 3.274 0 0 1-.116-.892v-7.939h1.185v7.822a1.25 1.25 0 0 0 .195.768.757.757 0 0 0 .56.273l.365.006v.781a1.98 1.98 0 0 1-.605.105zm2.489 2.063a2.63 2.63 0 0 1-.814-.085l-.221-.085v-.78l.683.012a1.85 1.85 0 0 0 .775-.097.95.95 0 0 0 .41-.293 1.71 1.71 0 0 0 .203-.344l.234-.64-2.63-6.565h1.216l1.987 5.193 1.973-5.193h1.18l-2.84 7.237a2.68 2.68 0 0 1-.925 1.301 2.255 2.255 0 0 1-1.231.339z" style="fill:#36536b"/><ellipse cx="130.248" cy="206.235" rx="28.053" ry="28.032" style="opacity:.25;fill:#ba4270;isolation:isolate"/><path d="m121.23 207.933 4.586 4.582 13.298-13.288" style="fill:none;stroke:#ba4270;stroke-width:3px"/><path d="M81.154 318.362h101.193a15.023 15.023 0 0 1 15.028 15.017 15.023 15.023 0 0 1-15.028 15.017H81.154a15.023 15.023 0 0 1-15.028-15.017 15.023 15.023 0 0 1 15.028-15.017z" style="fill:#ba4270"/><path class="aeacd35f-770d-4c74-bfc3-9a18d7eabb2c" d="M112.788 329.422h.992q.38 0 .755.005.38 0 .634.006a5.261 5.261 0 0 1 2.358.517 3.04 3.04 0 0 1 1.345 1.355 4.6 4.6 0 0 1 .43 2.06 4.74 4.74 0 0 1-.452 2.14 3.136 3.136 0 0 1-1.384 1.388 4.995 4.995 0 0 1-2.352.49h-2.326zm1.62 1.3v5.362h.739a2.852 2.852 0 0 0 1.24-.264 2 2 0 0 0 .898-.865 3.282 3.282 0 0 0 .336-1.602 2.643 2.643 0 0 0-.662-2.01 2.496 2.496 0 0 0-1.79-.622zm7.66-1.295v1.449h-1.565v-1.45zm-.017 2.263v5.694h-1.537v-5.694zm3.628 5.804a3.398 3.398 0 0 1-1.146-.193 2.329 2.329 0 0 1-.932-.617 1.992 1.992 0 0 1-.485-1.095h1.395a.87.87 0 0 0 .463.633 1.63 1.63 0 0 0 .694.17 1.648 1.648 0 0 0 .743-.142.48.48 0 0 0 .287-.452.452.452 0 0 0-.17-.37 1.244 1.244 0 0 0-.551-.209l-1.003-.209a2.798 2.798 0 0 1-1.219-.54 1.362 1.362 0 0 1-.463-1.09 1.588 1.588 0 0 1 .607-1.282 2.71 2.71 0 0 1 1.785-.518 2.755 2.755 0 0 1 1.681.468 1.544 1.544 0 0 1 .644 1.3h-1.344a.736.736 0 0 0-.33-.507 1.15 1.15 0 0 0-.667-.181 1.42 1.42 0 0 0-.69.148.484.484 0 0 0-.269.451.402.402 0 0 0 .22.359 2.385 2.385 0 0 0 .684.22l.926.21a2.212 2.212 0 0 1 .963.45 1.524 1.524 0 0 1 .452.628 1.684 1.684 0 0 1 .121.584 1.523 1.523 0 0 1-.666 1.322 2.976 2.976 0 0 1-1.73.462zm3.44-.11v-5.694h1.577v.804a2.29 2.29 0 0 1 .694-.643 2.086 2.086 0 0 1 1.108-.27 1.94 1.94 0 0 1 .887.23 1.66 1.66 0 0 1 .711.683 2.24 2.24 0 0 1 .721-.65 1.95 1.95 0 0 1 1.003-.264 2.082 2.082 0 0 1 .855.193 1.66 1.66 0 0 1 .716.638 2.206 2.206 0 0 1 .292 1.218v3.755h-1.61v-3.557a.84.84 0 0 0-.286-.727 1.046 1.046 0 0 0-.628-.21 1.155 1.155 0 0 0-.435.089.877.877 0 0 0-.375.27.745.745 0 0 0-.154.49v3.645h-1.604v-3.7a.675.675 0 0 0-.291-.59 1.06 1.06 0 0 0-.613-.203 1.15 1.15 0 0 0-.644.21.715.715 0 0 0-.314.638v3.645zm11.421-7.957v1.449h-1.565v-1.45zm-.016 2.263v5.694h-1.538v-5.694zm3.627 5.804a3.398 3.398 0 0 1-1.146-.193 2.319 2.319 0 0 1-.93-.617 1.992 1.992 0 0 1-.486-1.095h1.394a.876.876 0 0 0 .463.633 1.63 1.63 0 0 0 .694.17 1.653 1.653 0 0 0 .744-.142.482.482 0 0 0 .287-.452.45.45 0 0 0-.171-.37 1.24 1.24 0 0 0-.551-.208l-1.003-.21a2.799 2.799 0 0 1-1.218-.54 1.356 1.356 0 0 1-.462-1.09 1.588 1.588 0 0 1 .606-1.282 2.706 2.706 0 0 1 1.785-.518 2.752 2.752 0 0 1 1.68.468 1.544 1.544 0 0 1 .646 1.3h-1.345a.743.743 0 0 0-.33-.507 1.152 1.152 0 0 0-.668-.181 1.414 1.414 0 0 0-.688.148.485.485 0 0 0-.27.451.402.402 0 0 0 .22.359 2.397 2.397 0 0 0 .683.22l.926.21a2.21 2.21 0 0 1 .965.45 1.534 1.534 0 0 1 .451.628 1.707 1.707 0 0 1 .122.584 1.521 1.521 0 0 1-.668 1.322 2.974 2.974 0 0 1-1.73.462zm5.62 0a3.398 3.398 0 0 1-1.146-.193 2.329 2.329 0 0 1-.932-.617 2 2 0 0 1-.485-1.095h1.395a.876.876 0 0 0 .462.633 1.63 1.63 0 0 0 .695.17 1.648 1.648 0 0 0 .743-.142.48.48 0 0 0 .287-.452.45.45 0 0 0-.17-.37 1.24 1.24 0 0 0-.552-.208l-1.003-.21a2.803 2.803 0 0 1-1.218-.54 1.362 1.362 0 0 1-.463-1.09 1.59 1.59 0 0 1 .606-1.282 2.71 2.71 0 0 1 1.786-.518 2.753 2.753 0 0 1 1.681.468 1.541 1.541 0 0 1 .644 1.3h-1.344a.736.736 0 0 0-.33-.507 1.149 1.149 0 0 0-.667-.181 1.42 1.42 0 0 0-.69.148.485.485 0 0 0-.269.451.401.401 0 0 0 .22.359 2.396 2.396 0 0 0 .684.22l.925.21a2.206 2.206 0 0 1 .964.45 1.524 1.524 0 0 1 .452.628 1.684 1.684 0 0 1 .121.584 1.52 1.52 0 0 1-.666 1.322 2.974 2.974 0 0 1-1.73.462z"/></svg>