<svg id="f96f9ab4-49b5-4c67-bb90-72c180cafa8e" data-name="Слой 1" xmlns="http://www.w3.org/2000/svg" xmlns:xlink="http://www.w3.org/1999/xlink" viewBox="0 0 263 500"><defs><linearGradient id="fca4710d-5201-4693-92e9-adf3f99832e1" x1="131.586" y1="502" x2="131.586" y2="489.701" gradientTransform="matrix(1 0 0 -1 0 502)" gradientUnits="userSpaceOnUse"><stop offset="0" stop-color="#454545"/><stop offset=".226" stop-color="#999"/><stop offset="1" stop-color="#fff"/></linearGradient><linearGradient id="a9dabe91-e09b-4e10-ab3a-b1c9336390f3" x1="260.598" y1="253.67" x2="251.119" y2="253.67" gradientTransform="matrix(1 0 0 -1 0 502)" gradientUnits="userSpaceOnUse"><stop offset="0" stop-color="#fff" stop-opacity=".01"/><stop offset=".222" stop-color="#bababa"/><stop offset=".547" stop-color="#fff" stop-opacity=".01"/><stop offset="1" stop-color="#fff" stop-opacity=".01"/></linearGradient><linearGradient id="f0383f3f-954f-4d15-b9d8-545826133ee4" x1="2.573" y1="253.67" x2="12.067" y2="253.67" xlink:href="#a9dabe91-e09b-4e10-ab3a-b1c9336390f3"/><clipPath id="a3590d05-15bd-459a-b083-304ba15b113e"><path style="fill:none" d="M30.057 92.814h204.389v55.888H30.057z"/></clipPath><style>.a2ab271b-8bc1-4c80-9aeb-d8a57950481d,.a4e2cfb6-c394-4a39-8deb-9a623a0abcf8,.b03ce628-4373-40f2-b954-0e3cb3cc7ef4{fill:#fff}.a2ab271b-8bc1-4c80-9aeb-d8a57950481d,.a6423d68-10eb-456d-a459-8fe8ab454408{fill-rule:evenodd}.b03ce628-4373-40f2-b954-0e3cb3cc7ef4,.ba03c4bf-a358-4633-83a4-9c54fb9695d8{isolation:isolate}.a6423d68-10eb-456d-a459-8fe8ab454408{fill:#2e423c}.f4ebd915-cb89-485a-b5aa-eafc9f928c18{fill:#fbfcfe}.ba03c4bf-a358-4633-83a4-9c54fb9695d8,.e2350cd7-dcaa-406f-ab24-d254b28d383e{fill:#36536b}.ba03c4bf-a358-4633-83a4-9c54fb9695d8{opacity:.7}.b03ce628-4373-40f2-b954-0e3cb3cc7ef4{opacity:.5}</style><mask id="ae99320b-a76c-40a8-925f-77e045f42c60" x="15.103" y="12.42" width="233.444" height="487.58" maskUnits="userSpaceOnUse"><path class="a2ab271b-8bc1-4c80-9aeb-d8a57950481d" d="M108.883 12.42H34.335c-11.126 0-19.232 7.548-19.232 17.406v421.547c0 12.855 12.526 24.243 26.69 24.243h179.674c13.644 0 26.69-11.477 26.69-24.243V30.966c0-11.816-8.806-18.476-19.232-18.546h-75.73a14.341 14.341 0 0 0-7.687 7.548c-2.2 5.37-6.623 9.652-11.466 9.652h-5.626c-2.302 0-8.364-2.225-11.434-9.652-3.068-7.427-7.811-7.502-8.099-7.548z" id="ae1425a0-1bba-4233-af2f-2251df4eba95" data-name="mask0 0 4969"/></mask></defs><path d="M35.844.568h191.597c18.376 0 33.272 14.207 33.272 31.732v434.402c0 17.525-14.896 31.732-33.272 31.732H35.844c-18.375 0-33.271-14.207-33.271-31.732V32.3C2.573 14.775 17.469.568 35.844.568z" style="fill:#213648;fill-rule:evenodd"/><path d="M228.183 0H34.989Q21.46.822 10.034 12.3c4.899-4.26 13.636-9.96 25.188-9.96H227.95c11.551 0 20.289 5.7 25.188 9.96Q241.712.821 228.183 0z" style="isolation:isolate;fill-opacity:.65;opacity:.59556;fill:url(#fca4710d-5201-4693-92e9-adf3f99832e1);fill-rule:evenodd"/><path d="M255.485 461.748V34.912c0-11.452-4.225-15.686-6.746-18.404s-2.628-4.106.994-2.053 10.865 8.03 10.865 20.457v426.836c0 12.426-7.243 18.404-10.865 20.457-3.622 2.051-3.515.665-.994-2.053s6.746-6.952 6.746-18.404z" style="fill:url(#a9dabe91-e09b-4e10-ab3a-b1c9336390f3);opacity:.75;isolation:isolate;fill-rule:evenodd"/><path d="M7.687 461.748V34.912c0-11.452 4.225-15.686 6.746-18.404s2.628-4.106-.994-2.053-10.866 8.03-10.866 20.457v426.836c0 12.426 7.244 18.404 10.866 20.457 3.622 2.051 3.514.665.994-2.053s-6.746-6.952-6.746-18.404z" style="fill:url(#f0383f3f-954f-4d15-b9d8-545826133ee4);opacity:.75;isolation:isolate;fill-rule:evenodd"/><path class="a6423d68-10eb-456d-a459-8fe8ab454408" d="M0 103.35a2 2 0 0 1 2.004-1.996h.966a2 2 0 0 1 2.004 1.996v60.23a2 2 0 0 1-2.004 1.996h-.966A2 2 0 0 1 0 163.58zM258.026 155.732a2 2 0 0 1 2.003-1.996h.967a2 2 0 0 1 2.004 1.996v42.864a2 2 0 0 1-2.004 1.996h-.967a2 2 0 0 1-2.003-1.996z"/><path d="M108.883 12.42H34.335c-11.126 0-19.232 7.548-19.232 17.406v421.547c0 12.855 12.526 24.243 26.69 24.243h179.674c13.644 0 26.69-11.477 26.69-24.243V30.966c0-11.816-8.806-18.476-19.232-18.546h-75.73a14.341 14.341 0 0 0-7.687 7.548c-2.2 5.37-6.623 9.652-11.466 9.652h-5.626c-2.302 0-8.364-2.225-11.434-9.652-3.068-7.427-7.811-7.502-8.099-7.548z" style="fill:#edf3f8;fill-rule:evenodd"/><g style="mask:url(#ae99320b-a76c-40a8-925f-77e045f42c60)"><path class="f4ebd915-cb89-485a-b5aa-eafc9f928c18" d="M35.067 172.655h194.37a5 5 0 0 1 5.009 4.99v29.94a5 5 0 0 1-5.01 4.99H35.066a5 5 0 0 1-5.009-4.99v-29.94a5 5 0 0 1 5.01-4.99z"/><path class="ba03c4bf-a358-4633-83a4-9c54fb9695d8" d="M47.044 189.391h.927v7.216h-.927zm5.221 2.73h-1.167v3.208a1.118 1.118 0 0 0 .055.405.287.287 0 0 0 .196.16 1.665 1.665 0 0 0 .38.034h.566v.619a1.475 1.475 0 0 1-.29.06 3.698 3.698 0 0 1-.476.025 1.93 1.93 0 0 1-.832-.145.831.831 0 0 1-.415-.43 1.878 1.878 0 0 1-.116-.698v-3.238h-.841v-.674h.866l.226-1.502h.681v1.497h1.167zm1.779 2.12a2.357 2.357 0 0 0 .16.889 1.348 1.348 0 0 0 1.333.863 1.54 1.54 0 0 0 .851-.23 1.029 1.029 0 0 0 .461-.663h.877a1.744 1.744 0 0 1-.421.883 2.096 2.096 0 0 1-.787.544 2.628 2.628 0 0 1-.961.18 2.535 2.535 0 0 1-1.278-.315 2.19 2.19 0 0 1-.861-.903 2.986 2.986 0 0 1-.311-1.412 3.398 3.398 0 0 1 .28-1.427 2.207 2.207 0 0 1 .812-.958 2.332 2.332 0 0 1 1.287-.345 2.3 2.3 0 0 1 1.238.315 1.978 1.978 0 0 1 .766.888 3.17 3.17 0 0 1 .266 1.352v.34zm.005-.623h2.815a2.026 2.026 0 0 0-.15-.799 1.222 1.222 0 0 0-.461-.564 1.514 1.514 0 0 0-1.578.025 1.438 1.438 0 0 0-.476.594 1.805 1.805 0 0 0-.15.744zm4.902 2.989v-5.16h.892v.749a2.035 2.035 0 0 1 .59-.594 1.71 1.71 0 0 1 .978-.255 1.84 1.84 0 0 1 .57.095 1.734 1.734 0 0 1 .542.285 1.323 1.323 0 0 1 .38.464 1.792 1.792 0 0 1 .652-.61 1.832 1.832 0 0 1 .927-.234 2.04 2.04 0 0 1 .566.085 1.419 1.419 0 0 1 .546.29 1.467 1.467 0 0 1 .415.573 2.341 2.341 0 0 1 .16.939v3.373h-.931v-3.284a1.436 1.436 0 0 0-.15-.723.836.836 0 0 0-.396-.365 1.279 1.279 0 0 0-.516-.104 1.556 1.556 0 0 0-.511.095 1.05 1.05 0 0 0-.46.319.917.917 0 0 0-.191.614v3.448h-.922v-3.553a.785.785 0 0 0-.165-.51 1.012 1.012 0 0 0-.406-.309 1.195 1.195 0 0 0-.481-.104 1.475 1.475 0 0 0-.536.104 1.082 1.082 0 0 0-.45.335.912.912 0 0 0-.181.589v3.448zm12.903-7.166-1.087 7.18-.572-.08 1.093-7.165zm2.054 0-1.088 7.18-.57-.08 1.091-7.165zm.42 4.262v.563h-4.954v-.563zm.32-2.046v.564h-4.953v-.564zm3.391-2.366a2.212 2.212 0 0 1 1.874.944 5.857 5.857 0 0 1 .005 5.548 2.377 2.377 0 0 1-3.772.005 4.573 4.573 0 0 1-.697-2.76 5.776 5.776 0 0 1 .321-2.065 2.668 2.668 0 0 1 .902-1.252 2.273 2.273 0 0 1 1.367-.42zm0 6.627a1.278 1.278 0 0 0 1.173-.678 4.608 4.608 0 0 0 .4-2.221 4.664 4.664 0 0 0-.405-2.256 1.28 1.28 0 0 0-1.173-.693 1.305 1.305 0 0 0-1.182.698 4.611 4.611 0 0 0-.41 2.25 4.484 4.484 0 0 0 .41 2.217 1.307 1.307 0 0 0 1.187.683zm5.989-6.627a2.21 2.21 0 0 1 1.873.944 5.857 5.857 0 0 1 .005 5.548 2.377 2.377 0 0 1-3.772.005 4.58 4.58 0 0 1-.696-2.76 5.8 5.8 0 0 1 .32-2.065 2.682 2.682 0 0 1 .902-1.252 2.277 2.277 0 0 1 1.368-.42zm0 6.627a1.276 1.276 0 0 0 1.172-.678 4.596 4.596 0 0 0 .4-2.221 4.664 4.664 0 0 0-.405-2.256 1.278 1.278 0 0 0-1.172-.693 1.306 1.306 0 0 0-1.182.698 4.623 4.623 0 0 0-.411 2.251 4.496 4.496 0 0 0 .41 2.216 1.309 1.309 0 0 0 1.188.683zm4.85.689v-5.744H87.48v-.604a4.199 4.199 0 0 0 1.012-.094.916.916 0 0 0 .511-.29.82.82 0 0 0 .17-.484h.662v7.216z"/><path class="e2350cd7-dcaa-406f-ab24-d254b28d383e" d="M197.501 196.737a5.025 5.025 0 0 1-2.748-.675 2.698 2.698 0 0 1-1.211-2.096l1.98-.039a1.565 1.565 0 0 0 .67.98 2.386 2.386 0 0 0 1.302.33 2.136 2.136 0 0 0 .828-.148 1.454 1.454 0 0 0 .573-.415.957.957 0 0 0 .209-.604.909.909 0 0 0-.333-.772 2.625 2.625 0 0 0-1.022-.415l-1.544-.33a3.338 3.338 0 0 1-1.725-.85 2.363 2.363 0 0 1-.659-1.72 2.436 2.436 0 0 1 .476-1.524 3.13 3.13 0 0 1 1.322-.999 4.847 4.847 0 0 1 1.882-.35 4.13 4.13 0 0 1 1.843.382 2.873 2.873 0 0 1 1.198 1.019 2.413 2.413 0 0 1 .411 1.407l-1.922.033a1.807 1.807 0 0 0-.416-.98 1.408 1.408 0 0 0-1.082-.356 2.635 2.635 0 0 0-.696.084 1.7 1.7 0 0 0-.528.24 1.07 1.07 0 0 0-.338.356.975.975 0 0 0-.11.467.819.819 0 0 0 .273.65 2.876 2.876 0 0 0 1.048.434l1.518.37a3.156 3.156 0 0 1 1.85 1.044 2.847 2.847 0 0 1 .572 1.797 2.302 2.302 0 0 1-.45 1.414 2.84 2.84 0 0 1-1.256.934 5.05 5.05 0 0 1-1.915.332zm-.814-10.854h1.648v1.687h-1.648zm-.032 10.276h1.641v1.687h-1.641zm5.743.448v-1.414a2.658 2.658 0 0 1 .267-1.233 2.992 2.992 0 0 1 .704-.908 5.57 5.57 0 0 1 .963-.682q.528-.292 1.055-.55t.964-.52a2.72 2.72 0 0 0 .71-.59 1.164 1.164 0 0 0 .267-.766 1.18 1.18 0 0 0-.398-.921 1.534 1.534 0 0 0-1.074-.356 1.831 1.831 0 0 0-1.205.408 1.87 1.87 0 0 0-.612 1.232h-1.817a3.376 3.376 0 0 1 .417-1.621 2.914 2.914 0 0 1 1.225-1.161 4.363 4.363 0 0 1 2.044-.428 4.256 4.256 0 0 1 1.817.356 2.768 2.768 0 0 1 1.185.993 2.91 2.91 0 0 1 .156 2.705 2.78 2.78 0 0 1-.69.876 5.289 5.289 0 0 1-.944.636q-.515.272-1.029.506-.508.233-.937.48a2.478 2.478 0 0 0-.69.545 1.087 1.087 0 0 0-.261.732v.085h4.799v1.596zm11.463.143a4.013 4.013 0 0 1-1.642-.338 3.203 3.203 0 0 1-1.243-.947 2.58 2.58 0 0 1-.54-1.44h1.81a1.559 1.559 0 0 0 .52.888 1.528 1.528 0 0 0 1.016.338 2.19 2.19 0 0 0 1.186-.318 1.904 1.904 0 0 0 .768-1.012 4.391 4.391 0 0 0 .183-1.816 1.9 1.9 0 0 1-.508.603 2.409 2.409 0 0 1-.749.396 3.163 3.163 0 0 1-.958.135 3.88 3.88 0 0 1-1.699-.356 2.83 2.83 0 0 1-1.16-1.025 2.923 2.923 0 0 1-.416-1.583 3.013 3.013 0 0 1 1.68-2.77 4.017 4.017 0 0 1 1.863-.408 3.667 3.667 0 0 1 2.064.57 3.587 3.587 0 0 1 1.335 1.61 5.895 5.895 0 0 1 .47 2.445 7.13 7.13 0 0 1-.483 2.802 3.537 3.537 0 0 1-1.367 1.674 3.968 3.968 0 0 1-2.13.552zm.169-5.015a1.782 1.782 0 0 0 .768-.175 1.936 1.936 0 0 0 .62-.454.85.85 0 0 0 .24-.565 2.49 2.49 0 0 0-.201-1.077 1.553 1.553 0 0 0-.573-.694 1.522 1.522 0 0 0-.854-.24 1.55 1.55 0 0 0-.8.208 1.471 1.471 0 0 0-.555.583 1.817 1.817 0 0 0-.201.87 1.5 1.5 0 0 0 .43 1.141 1.58 1.58 0 0 0 1.126.403z"/><path class="f4ebd915-cb89-485a-b5aa-eafc9f928c18" d="M35.067 220.559h194.37a5 5 0 0 1 5.009 4.99v29.94a5 5 0 0 1-5.01 4.99H35.066a5 5 0 0 1-5.009-4.99v-29.94a5 5 0 0 1 5.01-4.99z"/><path class="ba03c4bf-a358-4633-83a4-9c54fb9695d8" d="M47.044 237.295h.927v7.216h-.927zm5.221 2.73h-1.167v3.209a1.118 1.118 0 0 0 .055.404.287.287 0 0 0 .196.16 1.665 1.665 0 0 0 .38.034h.566v.62a1.474 1.474 0 0 1-.29.059 3.698 3.698 0 0 1-.476.025 1.93 1.93 0 0 1-.832-.145.831.831 0 0 1-.415-.429 1.878 1.878 0 0 1-.116-.699v-3.238h-.841v-.674h.866l.226-1.502h.681v1.497h1.167zm1.779 2.12a2.357 2.357 0 0 0 .16.889 1.348 1.348 0 0 0 1.333.863 1.54 1.54 0 0 0 .851-.23 1.029 1.029 0 0 0 .461-.663h.877a1.744 1.744 0 0 1-.421.883 2.097 2.097 0 0 1-.787.544 2.628 2.628 0 0 1-.961.18 2.535 2.535 0 0 1-1.278-.315 2.19 2.19 0 0 1-.861-.903 2.986 2.986 0 0 1-.311-1.412 3.398 3.398 0 0 1 .28-1.427 2.207 2.207 0 0 1 .812-.958 2.332 2.332 0 0 1 1.287-.344 2.3 2.3 0 0 1 1.238.314 1.978 1.978 0 0 1 .766.888 3.17 3.17 0 0 1 .266 1.352v.34zm.005-.623h2.815a2.026 2.026 0 0 0-.15-.798 1.222 1.222 0 0 0-.461-.564 1.514 1.514 0 0 0-1.578.025 1.438 1.438 0 0 0-.476.593 1.805 1.805 0 0 0-.15.744zm4.902 2.989v-5.16h.892v.749a2.036 2.036 0 0 1 .59-.594 1.71 1.71 0 0 1 .978-.255 1.84 1.84 0 0 1 .57.095 1.734 1.734 0 0 1 .542.285 1.323 1.323 0 0 1 .38.464 1.791 1.791 0 0 1 .652-.609 1.833 1.833 0 0 1 .927-.235 2.04 2.04 0 0 1 .566.085 1.419 1.419 0 0 1 .546.29 1.467 1.467 0 0 1 .415.574 2.341 2.341 0 0 1 .16.938v3.373h-.931v-3.283a1.436 1.436 0 0 0-.15-.724.836.836 0 0 0-.396-.364 1.278 1.278 0 0 0-.516-.105 1.556 1.556 0 0 0-.511.095 1.05 1.05 0 0 0-.46.32.917.917 0 0 0-.191.613v3.448h-.922v-3.553a.785.785 0 0 0-.165-.509 1.012 1.012 0 0 0-.406-.31 1.195 1.195 0 0 0-.481-.104 1.474 1.474 0 0 0-.536.105 1.082 1.082 0 0 0-.45.334.913.913 0 0 0-.181.589v3.448zm12.903-7.166-1.087 7.181-.572-.08 1.093-7.166zm2.054 0-1.088 7.181-.57-.08 1.091-7.166zm.42 4.262v.564h-4.954v-.564zm.32-2.046v.564h-4.953v-.564zm3.391-2.365a2.212 2.212 0 0 1 1.874.943 5.857 5.857 0 0 1 .005 5.549 2.377 2.377 0 0 1-3.772.005 4.573 4.573 0 0 1-.697-2.76 5.777 5.777 0 0 1 .321-2.066 2.668 2.668 0 0 1 .902-1.252 2.273 2.273 0 0 1 1.367-.42zm0 6.626a1.278 1.278 0 0 0 1.173-.678 4.608 4.608 0 0 0 .4-2.22 4.664 4.664 0 0 0-.405-2.256 1.28 1.28 0 0 0-1.173-.694 1.305 1.305 0 0 0-1.182.699 4.611 4.611 0 0 0-.41 2.25 4.484 4.484 0 0 0 .41 2.216 1.307 1.307 0 0 0 1.187.683zm5.989-6.626a2.21 2.21 0 0 1 1.873.943 5.857 5.857 0 0 1 .005 5.549 2.377 2.377 0 0 1-3.772.005 4.58 4.58 0 0 1-.696-2.76 5.8 5.8 0 0 1 .32-2.066 2.682 2.682 0 0 1 .902-1.252 2.277 2.277 0 0 1 1.368-.42zm0 6.626a1.276 1.276 0 0 0 1.172-.678 4.596 4.596 0 0 0 .4-2.22 4.664 4.664 0 0 0-.405-2.256 1.278 1.278 0 0 0-1.172-.694 1.306 1.306 0 0 0-1.182.699 4.623 4.623 0 0 0-.411 2.25 4.496 4.496 0 0 0 .41 2.216 1.309 1.309 0 0 0 1.188.683zm3.608.689v-.858a2.1 2.1 0 0 1 .205-.958 2.421 2.421 0 0 1 .551-.704 4.934 4.934 0 0 1 .751-.544q.412-.24.817-.459a7.7 7.7 0 0 0 .751-.464 2.168 2.168 0 0 0 .546-.549 1.265 1.265 0 0 0 .21-.729 1.135 1.135 0 0 0-.39-.893 1.514 1.514 0 0 0-1.047-.344 1.613 1.613 0 0 0-1.142.4 1.572 1.572 0 0 0-.486 1.062h-.922a2.364 2.364 0 0 1 .31-1.138 2.146 2.146 0 0 1 .867-.828 2.922 2.922 0 0 1 1.408-.31 2.869 2.869 0 0 1 1.263.26 1.914 1.914 0 0 1 .826.719 1.936 1.936 0 0 1 .296 1.072 2.07 2.07 0 0 1-.206.959 2.283 2.283 0 0 1-.546.693 4.672 4.672 0 0 1-.736.52q-.4.228-.807.443a6.51 6.51 0 0 0-.741.444 2.05 2.05 0 0 0-.541.53 1.234 1.234 0 0 0-.205.713v.145h3.822v.818z"/><path class="e2350cd7-dcaa-406f-ab24-d254b28d383e" d="M191.7 244.64a5.025 5.025 0 0 1-2.749-.674 2.698 2.698 0 0 1-1.211-2.096l1.98-.039a1.565 1.565 0 0 0 .67.98 2.386 2.386 0 0 0 1.302.33 2.132 2.132 0 0 0 .828-.148 1.447 1.447 0 0 0 .573-.415.951.951 0 0 0 .209-.604.909.909 0 0 0-.333-.771 2.624 2.624 0 0 0-1.022-.416l-1.544-.33a3.338 3.338 0 0 1-1.725-.85 2.363 2.363 0 0 1-.659-1.72 2.436 2.436 0 0 1 .476-1.524 3.136 3.136 0 0 1 1.322-.999 4.852 4.852 0 0 1 1.882-.35 4.125 4.125 0 0 1 1.843.382 2.873 2.873 0 0 1 1.198 1.02 2.405 2.405 0 0 1 .411 1.406l-1.922.033a1.8 1.8 0 0 0-.416-.98 1.406 1.406 0 0 0-1.082-.356 2.641 2.641 0 0 0-.696.084 1.712 1.712 0 0 0-.528.24 1.07 1.07 0 0 0-.339.357.986.986 0 0 0-.11.467.819.819 0 0 0 .274.648 2.876 2.876 0 0 0 1.048.436l1.518.369a3.153 3.153 0 0 1 1.85 1.045 2.847 2.847 0 0 1 .572 1.796 2.302 2.302 0 0 1-.45 1.414 2.83 2.83 0 0 1-1.256.934 5.05 5.05 0 0 1-1.915.332zm-.815-10.853h1.648v1.687h-1.648zm-.032 10.276h1.641v1.688h-1.641zm7.248.448v-7.026h-1.68v-1.07a4.626 4.626 0 0 0 1.302-.15 1.587 1.587 0 0 0 .75-.44 1.268 1.268 0 0 0 .292-.694h1.263v9.38zm7.438-9.51a3.172 3.172 0 0 1 2.65 1.251 7.13 7.13 0 0 1 .013 7.162 3.496 3.496 0 0 1-5.34 0 5.738 5.738 0 0 1-.957-3.568 6.976 6.976 0 0 1 .443-2.64 3.543 3.543 0 0 1 1.256-1.641 3.31 3.31 0 0 1 1.935-.564zm0 8.102a1.298 1.298 0 0 0 1.23-.746 5.842 5.842 0 0 0 .39-2.51 6.07 6.07 0 0 0-.396-2.576 1.302 1.302 0 0 0-1.231-.778 1.326 1.326 0 0 0-1.244.784 5.983 5.983 0 0 0-.403 2.57 5.645 5.645 0 0 0 .403 2.503 1.327 1.327 0 0 0 1.25.753zm5.643-7.972h6.051l-.072 1.55h-4.474l-.182 2.264a4.505 4.505 0 0 1 .99-.422 3.977 3.977 0 0 1 1.042-.13 3.85 3.85 0 0 1 1.686.358 2.77 2.77 0 0 1 1.185 1.03 3.02 3.02 0 0 1 .437 1.661 3.169 3.169 0 0 1-.45 1.713 2.938 2.938 0 0 1-1.276 1.11 4.505 4.505 0 0 1-1.947.389 5.035 5.035 0 0 1-1.72-.286 4.4 4.4 0 0 1-1.374-.778 3.39 3.39 0 0 1-.878-1.142l1.484-.876a4.677 4.677 0 0 0 .574.798 2.494 2.494 0 0 0 .735.558 2.275 2.275 0 0 0 .984.2 1.998 1.998 0 0 0 1.36-.446 1.476 1.476 0 0 0 .515-1.168 1.447 1.447 0 0 0-.234-.811 1.59 1.59 0 0 0-.632-.571 2.048 2.048 0 0 0-.944-.208 2.842 2.842 0 0 0-.547.052 1.89 1.89 0 0 0-.521.182 3.627 3.627 0 0 0-.58.376.398.398 0 0 1-.13.039.413.413 0 0 1-.13-.045l-1.381-.636z"/><path class="f4ebd915-cb89-485a-b5aa-eafc9f928c18" d="M35.067 268.463h194.37a5 5 0 0 1 5.009 4.99v29.94a5 5 0 0 1-5.01 4.99H35.066a5 5 0 0 1-5.009-4.99v-29.94a5 5 0 0 1 5.01-4.99z"/><path class="ba03c4bf-a358-4633-83a4-9c54fb9695d8" d="M47.044 285.2h.927v7.215h-.927zm5.221 2.73h-1.167v3.208a1.118 1.118 0 0 0 .055.404.286.286 0 0 0 .196.16 1.665 1.665 0 0 0 .38.035h.566v.618a1.473 1.473 0 0 1-.29.06 3.698 3.698 0 0 1-.476.025 1.93 1.93 0 0 1-.832-.145.831.831 0 0 1-.415-.429 1.878 1.878 0 0 1-.116-.698v-3.239h-.841v-.674h.866l.226-1.502h.681v1.497h1.167zm1.779 2.12a2.357 2.357 0 0 0 .16.888 1.348 1.348 0 0 0 1.333.863 1.54 1.54 0 0 0 .851-.23 1.029 1.029 0 0 0 .461-.663h.877a1.744 1.744 0 0 1-.421.883 2.097 2.097 0 0 1-.787.544 2.628 2.628 0 0 1-.961.18 2.535 2.535 0 0 1-1.278-.314 2.19 2.19 0 0 1-.861-.904 2.985 2.985 0 0 1-.311-1.412 3.398 3.398 0 0 1 .28-1.427 2.207 2.207 0 0 1 .812-.958 2.332 2.332 0 0 1 1.287-.344 2.3 2.3 0 0 1 1.238.314 1.978 1.978 0 0 1 .766.888 3.17 3.17 0 0 1 .266 1.353v.339zm.005-.624h2.815a2.026 2.026 0 0 0-.15-.798 1.222 1.222 0 0 0-.461-.564 1.514 1.514 0 0 0-1.578.025 1.438 1.438 0 0 0-.476.594 1.805 1.805 0 0 0-.15.743zm4.902 2.99v-5.16h.892v.748a2.035 2.035 0 0 1 .59-.594 1.71 1.71 0 0 1 .978-.254 1.84 1.84 0 0 1 .57.094 1.734 1.734 0 0 1 .542.285 1.323 1.323 0 0 1 .38.464 1.791 1.791 0 0 1 .652-.609 1.832 1.832 0 0 1 .927-.234 2.04 2.04 0 0 1 .566.084 1.419 1.419 0 0 1 .546.29 1.466 1.466 0 0 1 .415.574 2.34 2.34 0 0 1 .16.938v3.373h-.931v-3.283a1.436 1.436 0 0 0-.15-.724.836.836 0 0 0-.396-.364 1.278 1.278 0 0 0-.516-.105 1.556 1.556 0 0 0-.511.095 1.05 1.05 0 0 0-.46.32.917.917 0 0 0-.191.613v3.448h-.922v-3.553a.785.785 0 0 0-.165-.509 1.012 1.012 0 0 0-.406-.31 1.195 1.195 0 0 0-.481-.104 1.474 1.474 0 0 0-.536.105 1.082 1.082 0 0 0-.45.334.913.913 0 0 0-.181.589v3.448zm12.903-7.167-1.087 7.181-.572-.08 1.093-7.165zm2.054 0-1.088 7.181-.57-.08 1.091-7.165zm.42 4.262v.564h-4.954v-.564zm.32-2.046v.564h-4.953v-.564zm3.391-2.365a2.212 2.212 0 0 1 1.874.943 5.857 5.857 0 0 1 .005 5.549 2.377 2.377 0 0 1-3.772.005 4.573 4.573 0 0 1-.697-2.76 5.777 5.777 0 0 1 .321-2.066 2.668 2.668 0 0 1 .902-1.252 2.273 2.273 0 0 1 1.367-.42zm0 6.627a1.278 1.278 0 0 0 1.173-.68 4.608 4.608 0 0 0 .4-2.22 4.664 4.664 0 0 0-.405-2.255 1.28 1.28 0 0 0-1.173-.694 1.305 1.305 0 0 0-1.182.699 4.611 4.611 0 0 0-.41 2.25 4.484 4.484 0 0 0 .41 2.216 1.307 1.307 0 0 0 1.187.684zm5.989-6.627a2.21 2.21 0 0 1 1.873.943 5.857 5.857 0 0 1 .005 5.549 2.377 2.377 0 0 1-3.772.005 4.58 4.58 0 0 1-.696-2.76 5.8 5.8 0 0 1 .32-2.066 2.682 2.682 0 0 1 .902-1.252 2.277 2.277 0 0 1 1.368-.42zm0 6.627a1.276 1.276 0 0 0 1.172-.68 4.596 4.596 0 0 0 .4-2.22 4.664 4.664 0 0 0-.405-2.255 1.278 1.278 0 0 0-1.172-.694 1.306 1.306 0 0 0-1.182.699 4.623 4.623 0 0 0-.411 2.25 4.496 4.496 0 0 0 .41 2.216 1.309 1.309 0 0 0 1.188.684zm3.494-4.427a2.023 2.023 0 0 1 .341-1.187 2.18 2.18 0 0 1 .907-.754 3.008 3.008 0 0 1 1.257-.26 3.704 3.704 0 0 1 1.328.22 2.002 2.002 0 0 1 .901.63 1.587 1.587 0 0 1 .326 1.012 1.527 1.527 0 0 1-.34.968 2.219 2.219 0 0 1-1.043.674 2.647 2.647 0 0 1 .832.379 1.763 1.763 0 0 1 .551.614 1.708 1.708 0 0 1 .195.828 1.855 1.855 0 0 1-.21.888 1.935 1.935 0 0 1-.581.664 2.838 2.838 0 0 1-.887.414 4.102 4.102 0 0 1-1.112.135 3.098 3.098 0 0 1-1.317-.275 2.095 2.095 0 0 1-1.243-1.91h.927a1.579 1.579 0 0 0 .551 1.032 1.723 1.723 0 0 0 1.117.36 2.4 2.4 0 0 0 .927-.165 1.431 1.431 0 0 0 .611-.464 1.224 1.224 0 0 0-.025-1.422 1.476 1.476 0 0 0-.656-.454 2.626 2.626 0 0 0-.927-.165l-.651-.015v-.784l.621-.015a2.17 2.17 0 0 0 .852-.18 1.554 1.554 0 0 0 .59-.453.993.993 0 0 0 .221-.624.923.923 0 0 0-.185-.554 1.267 1.267 0 0 0-.536-.414 2.06 2.06 0 0 0-.842-.155 1.858 1.858 0 0 0-.746.155 1.373 1.373 0 0 0-.586.464 1.42 1.42 0 0 0-.246.813z"/><path class="e2350cd7-dcaa-406f-ab24-d254b28d383e" d="M191.75 292.545a5.025 5.025 0 0 1-2.748-.675 2.698 2.698 0 0 1-1.211-2.096l1.98-.038a1.565 1.565 0 0 0 .67.98 2.386 2.386 0 0 0 1.303.33 2.136 2.136 0 0 0 .827-.149 1.454 1.454 0 0 0 .573-.415.957.957 0 0 0 .209-.604.909.909 0 0 0-.333-.771 2.625 2.625 0 0 0-1.022-.415l-1.544-.33a3.338 3.338 0 0 1-1.725-.851 2.363 2.363 0 0 1-.658-1.72 2.436 2.436 0 0 1 .475-1.524 3.136 3.136 0 0 1 1.322-.999 4.848 4.848 0 0 1 1.883-.35 4.128 4.128 0 0 1 1.842.382 2.873 2.873 0 0 1 1.198 1.02 2.412 2.412 0 0 1 .411 1.407l-1.922.032a1.8 1.8 0 0 0-.416-.98 1.406 1.406 0 0 0-1.081-.356 2.636 2.636 0 0 0-.697.084 1.712 1.712 0 0 0-.528.24 1.07 1.07 0 0 0-.338.357.986.986 0 0 0-.11.467.819.819 0 0 0 .273.649 2.876 2.876 0 0 0 1.048.435l1.518.369a3.156 3.156 0 0 1 1.85 1.045 2.847 2.847 0 0 1 .572 1.796 2.302 2.302 0 0 1-.45 1.414 2.835 2.835 0 0 1-1.256.935 5.05 5.05 0 0 1-1.914.33zm-.814-10.853h1.648v1.686h-1.648zm-.032 10.275h1.641v1.688h-1.641zm9.37-9.062a4.644 4.644 0 0 1 1.733.305 2.74 2.74 0 0 1 1.211.895 2.312 2.312 0 0 1 .443 1.44 1.923 1.923 0 0 1-.398 1.226 2.664 2.664 0 0 1-.976.779 1.979 1.979 0 0 1 .84.428 2.664 2.664 0 0 1 .684.817 2.062 2.062 0 0 1 .267 1.018 2.305 2.305 0 0 1-.476 1.453 2.989 2.989 0 0 1-1.328.955 6.158 6.158 0 0 1-3.986 0 3.046 3.046 0 0 1-1.328-.955 2.31 2.31 0 0 1-.475-1.453 2.071 2.071 0 0 1 .266-1.018 2.718 2.718 0 0 1 .677-.817 1.977 1.977 0 0 1 .847-.428 2.734 2.734 0 0 1-.983-.779 1.904 1.904 0 0 1-.404-1.226 2.312 2.312 0 0 1 .443-1.44 2.782 2.782 0 0 1 1.218-.895 4.664 4.664 0 0 1 1.726-.305zm0 3.911a1.62 1.62 0 0 0 1.069-.343 1.316 1.316 0 0 0 0-1.933 1.766 1.766 0 0 0-2.13 0 1.316 1.316 0 0 0 0 1.933 1.628 1.628 0 0 0 1.062.343zm0 4.308a2.053 2.053 0 0 0 1.303-.37 1.204 1.204 0 0 0 .475-.993 1.248 1.248 0 0 0-.214-.726 1.44 1.44 0 0 0-.612-.5 2.278 2.278 0 0 0-.951-.18 2.241 2.241 0 0 0-.938.18 1.44 1.44 0 0 0-.612.5 1.248 1.248 0 0 0-.216.726 1.205 1.205 0 0 0 .476.993 2.046 2.046 0 0 0 1.29.37zm6.516 1.291v-7.026h-1.68v-1.07a4.63 4.63 0 0 0 1.302-.15 1.588 1.588 0 0 0 .749-.44 1.269 1.269 0 0 0 .293-.694h1.264v9.38zm7.437-9.51a3.174 3.174 0 0 1 2.651 1.252 7.137 7.137 0 0 1 .013 7.161 3.496 3.496 0 0 1-5.34 0 5.738 5.738 0 0 1-.958-3.568 6.976 6.976 0 0 1 .443-2.64 3.55 3.55 0 0 1 1.258-1.641 3.307 3.307 0 0 1 1.933-.564zm0 8.102a1.299 1.299 0 0 0 1.232-.746 5.842 5.842 0 0 0 .39-2.51 6.068 6.068 0 0 0-.397-2.575 1.3 1.3 0 0 0-1.23-.779 1.327 1.327 0 0 0-1.245.785 5.983 5.983 0 0 0-.404 2.568 5.645 5.645 0 0 0 .404 2.504 1.329 1.329 0 0 0 1.25.753z"/><path class="f4ebd915-cb89-485a-b5aa-eafc9f928c18" d="M35.067 316.367h194.37a5 5 0 0 1 5.009 4.99v29.94a5 5 0 0 1-5.01 4.99H35.066a5 5 0 0 1-5.009-4.99v-29.94a5 5 0 0 1 5.01-4.99z"/><path class="ba03c4bf-a358-4633-83a4-9c54fb9695d8" d="M47.044 333.104h.927v7.215h-.927zm5.221 2.73h-1.167v3.208a1.118 1.118 0 0 0 .055.404.286.286 0 0 0 .196.16 1.664 1.664 0 0 0 .38.035h.566v.618a1.473 1.473 0 0 1-.29.06 3.696 3.696 0 0 1-.476.025 1.93 1.93 0 0 1-.832-.144.831.831 0 0 1-.415-.43 1.878 1.878 0 0 1-.116-.698v-3.239h-.841v-.673h.866l.226-1.502h.681v1.497h1.167zm1.779 2.12a2.357 2.357 0 0 0 .16.888 1.348 1.348 0 0 0 1.333.864 1.54 1.54 0 0 0 .851-.23 1.029 1.029 0 0 0 .461-.664h.877a1.744 1.744 0 0 1-.421.884 2.097 2.097 0 0 1-.787.544 2.628 2.628 0 0 1-.961.18 2.535 2.535 0 0 1-1.278-.315 2.19 2.19 0 0 1-.861-.903 2.985 2.985 0 0 1-.311-1.413 3.398 3.398 0 0 1 .28-1.427 2.207 2.207 0 0 1 .812-.958 2.332 2.332 0 0 1 1.287-.344 2.3 2.3 0 0 1 1.238.314 1.978 1.978 0 0 1 .766.888 3.17 3.17 0 0 1 .266 1.353v.34zm.005-.624h2.815a2.026 2.026 0 0 0-.15-.798 1.222 1.222 0 0 0-.461-.564 1.514 1.514 0 0 0-1.578.025 1.438 1.438 0 0 0-.476.594 1.805 1.805 0 0 0-.15.743zm4.902 2.99v-5.16h.892v.748a2.035 2.035 0 0 1 .59-.594 1.71 1.71 0 0 1 .978-.254 1.84 1.84 0 0 1 .57.095 1.734 1.734 0 0 1 .542.284 1.323 1.323 0 0 1 .38.464 1.791 1.791 0 0 1 .652-.609 1.832 1.832 0 0 1 .927-.234 2.04 2.04 0 0 1 .566.085 1.419 1.419 0 0 1 .546.29 1.466 1.466 0 0 1 .415.573 2.34 2.34 0 0 1 .16.938v3.373h-.931v-3.283a1.436 1.436 0 0 0-.15-.724.836.836 0 0 0-.396-.364 1.278 1.278 0 0 0-.516-.105 1.556 1.556 0 0 0-.511.095 1.05 1.05 0 0 0-.46.32.917.917 0 0 0-.191.613v3.448h-.922v-3.553a.785.785 0 0 0-.165-.509 1.012 1.012 0 0 0-.406-.309 1.195 1.195 0 0 0-.481-.105 1.474 1.474 0 0 0-.536.105 1.082 1.082 0 0 0-.45.334.913.913 0 0 0-.181.59v3.447zm12.903-7.166-1.087 7.18-.572-.08 1.093-7.165zm2.054 0-1.088 7.18-.57-.08 1.091-7.165zm.42 4.261v.564h-4.954v-.564zm.32-2.046v.564h-4.953v-.564zm3.391-2.365a2.212 2.212 0 0 1 1.874.943 5.857 5.857 0 0 1 .005 5.549 2.377 2.377 0 0 1-3.772.005 4.573 4.573 0 0 1-.697-2.76 5.777 5.777 0 0 1 .321-2.065 2.668 2.668 0 0 1 .902-1.253 2.273 2.273 0 0 1 1.367-.419zm0 6.627a1.278 1.278 0 0 0 1.173-.679 4.608 4.608 0 0 0 .4-2.22 4.664 4.664 0 0 0-.405-2.256 1.28 1.28 0 0 0-1.173-.694 1.305 1.305 0 0 0-1.182.699 4.611 4.611 0 0 0-.41 2.25 4.484 4.484 0 0 0 .41 2.216 1.307 1.307 0 0 0 1.187.684zm5.989-6.627a2.21 2.21 0 0 1 1.873.943 5.857 5.857 0 0 1 .005 5.549 2.377 2.377 0 0 1-3.772.005 4.58 4.58 0 0 1-.696-2.76 5.8 5.8 0 0 1 .32-2.065 2.682 2.682 0 0 1 .902-1.253 2.277 2.277 0 0 1 1.368-.419zm0 6.627a1.276 1.276 0 0 0 1.172-.679 4.596 4.596 0 0 0 .4-2.22 4.664 4.664 0 0 0-.405-2.256 1.278 1.278 0 0 0-1.172-.694 1.306 1.306 0 0 0-1.182.699 4.623 4.623 0 0 0-.411 2.25 4.496 4.496 0 0 0 .41 2.216 1.309 1.309 0 0 0 1.188.684zm6.81-6.527h.942v4.56h1.202v.814h-1.203v1.841h-.906v-1.841H87.46v-.843zm-2.49 4.56h2.505v-3.348z"/><path class="e2350cd7-dcaa-406f-ab24-d254b28d383e" d="M183.545 340.45a5.025 5.025 0 0 1-2.748-.676 2.698 2.698 0 0 1-1.212-2.095l1.98-.04a1.565 1.565 0 0 0 .67.98 2.386 2.386 0 0 0 1.303.331 2.136 2.136 0 0 0 .827-.149 1.454 1.454 0 0 0 .574-.415.957.957 0 0 0 .208-.604.909.909 0 0 0-.333-.771 2.624 2.624 0 0 0-1.022-.415l-1.544-.33a3.339 3.339 0 0 1-1.725-.85 2.363 2.363 0 0 1-.658-1.72 2.436 2.436 0 0 1 .476-1.524 3.136 3.136 0 0 1 1.321-1 4.848 4.848 0 0 1 1.883-.35 4.128 4.128 0 0 1 1.842.383 2.873 2.873 0 0 1 1.199 1.018 2.413 2.413 0 0 1 .41 1.408l-1.921.033a1.8 1.8 0 0 0-.417-.98 1.406 1.406 0 0 0-1.081-.357 2.635 2.635 0 0 0-.696.084 1.712 1.712 0 0 0-.528.24 1.07 1.07 0 0 0-.339.357.986.986 0 0 0-.11.467.819.819 0 0 0 .273.649 2.876 2.876 0 0 0 1.048.435l1.518.37a3.156 3.156 0 0 1 1.85 1.044 2.847 2.847 0 0 1 .573 1.796 2.302 2.302 0 0 1-.45 1.415 2.835 2.835 0 0 1-1.256.934 5.05 5.05 0 0 1-1.915.331zm-.815-10.854h1.649v1.686h-1.649zm-.032 10.275h1.641v1.688h-1.64zm7.248.448v-7.026h-1.68v-1.07a4.63 4.63 0 0 0 1.302-.15 1.583 1.583 0 0 0 .749-.44 1.269 1.269 0 0 0 .293-.694h1.264v9.38zm7.437-9.51a3.174 3.174 0 0 1 2.651 1.252 7.137 7.137 0 0 1 .013 7.162 3.496 3.496 0 0 1-5.34 0 5.738 5.738 0 0 1-.958-3.568 6.996 6.996 0 0 1 .443-2.64 3.55 3.55 0 0 1 1.258-1.642 3.309 3.309 0 0 1 1.933-.564zm0 8.102a1.299 1.299 0 0 0 1.232-.745 5.842 5.842 0 0 0 .39-2.511 6.052 6.052 0 0 0-.397-2.575 1.3 1.3 0 0 0-1.23-.779 1.327 1.327 0 0 0-1.245.785 5.999 5.999 0 0 0-.404 2.569 5.66 5.66 0 0 0 .404 2.504 1.329 1.329 0 0 0 1.25.752zm8.89-7.972h1.869v5.716h1.451v1.589h-1.451v2.075h-1.83l.006-2.075h-4.337v-1.557zm-2.534 5.716h2.58v-3.44zm10.98-5.716h1.87v5.716h1.452v1.589h-1.452v2.075h-1.83l.006-2.075h-4.337v-1.557zm-2.533 5.716h2.58v-3.44z"/><path class="f4ebd915-cb89-485a-b5aa-eafc9f928c18" d="M35.067 364.271h194.37a5 5 0 0 1 5.009 4.99v29.94a5 5 0 0 1-5.01 4.99H35.066a5 5 0 0 1-5.009-4.99v-29.94a5 5 0 0 1 5.01-4.99z"/><path class="ba03c4bf-a358-4633-83a4-9c54fb9695d8" d="M47.044 381.008h.927v7.216h-.927zm5.221 2.73h-1.167v3.208a1.118 1.118 0 0 0 .055.404.286.286 0 0 0 .196.16 1.664 1.664 0 0 0 .38.035h.566v.619a1.474 1.474 0 0 1-.29.06 3.696 3.696 0 0 1-.476.025 1.93 1.93 0 0 1-.832-.145.831.831 0 0 1-.415-.43 1.878 1.878 0 0 1-.116-.698v-3.238h-.841v-.674h.866l.226-1.502h.681v1.497h1.167zm1.779 2.12a2.357 2.357 0 0 0 .16.889 1.348 1.348 0 0 0 1.333.863 1.54 1.54 0 0 0 .851-.23 1.029 1.029 0 0 0 .461-.663h.877a1.744 1.744 0 0 1-.421.883 2.097 2.097 0 0 1-.787.544 2.628 2.628 0 0 1-.961.18 2.535 2.535 0 0 1-1.278-.315 2.19 2.19 0 0 1-.861-.903 2.985 2.985 0 0 1-.311-1.412 3.398 3.398 0 0 1 .28-1.428 2.207 2.207 0 0 1 .812-.958 2.332 2.332 0 0 1 1.287-.344 2.3 2.3 0 0 1 1.238.314 1.978 1.978 0 0 1 .766.889 3.17 3.17 0 0 1 .266 1.352v.34zm.005-.623h2.815a2.026 2.026 0 0 0-.15-.799 1.222 1.222 0 0 0-.461-.564 1.514 1.514 0 0 0-1.578.025 1.438 1.438 0 0 0-.476.594 1.805 1.805 0 0 0-.15.744zm4.902 2.989v-5.16h.892v.748a2.036 2.036 0 0 1 .59-.593 1.71 1.71 0 0 1 .978-.255 1.84 1.84 0 0 1 .57.095 1.734 1.734 0 0 1 .542.284 1.323 1.323 0 0 1 .38.464 1.791 1.791 0 0 1 .652-.608 1.832 1.832 0 0 1 .927-.235 2.04 2.04 0 0 1 .566.085 1.419 1.419 0 0 1 .546.29 1.466 1.466 0 0 1 .415.573 2.34 2.34 0 0 1 .16.938v3.374h-.931v-3.284a1.436 1.436 0 0 0-.15-.723.836.836 0 0 0-.396-.365 1.278 1.278 0 0 0-.516-.104 1.556 1.556 0 0 0-.511.094 1.05 1.05 0 0 0-.46.32.917.917 0 0 0-.191.613v3.449h-.922v-3.553a.785.785 0 0 0-.165-.51 1.012 1.012 0 0 0-.406-.309 1.195 1.195 0 0 0-.481-.104 1.474 1.474 0 0 0-.536.104 1.082 1.082 0 0 0-.45.335.913.913 0 0 0-.181.588v3.449zm12.903-7.166-1.087 7.18-.572-.08 1.093-7.165zm2.054 0-1.088 7.18-.57-.08 1.091-7.165zm.42 4.261v.564h-4.954v-.564zm.32-2.046v.564h-4.953v-.564zm3.391-2.365a2.212 2.212 0 0 1 1.874.943 5.857 5.857 0 0 1 .005 5.55 2.377 2.377 0 0 1-3.772.004 4.573 4.573 0 0 1-.697-2.76 5.777 5.777 0 0 1 .321-2.065 2.668 2.668 0 0 1 .902-1.253 2.273 2.273 0 0 1 1.367-.419zm0 6.627a1.278 1.278 0 0 0 1.173-.679 4.608 4.608 0 0 0 .4-2.22 4.664 4.664 0 0 0-.405-2.256 1.28 1.28 0 0 0-1.173-.693 1.305 1.305 0 0 0-1.182.698 4.611 4.611 0 0 0-.41 2.25 4.484 4.484 0 0 0 .41 2.216 1.307 1.307 0 0 0 1.187.684zm5.989-6.627a2.21 2.21 0 0 1 1.873.943 5.857 5.857 0 0 1 .005 5.55 2.377 2.377 0 0 1-3.772.004 4.58 4.58 0 0 1-.696-2.76 5.8 5.8 0 0 1 .32-2.065 2.682 2.682 0 0 1 .902-1.253 2.277 2.277 0 0 1 1.368-.419zm0 6.627a1.276 1.276 0 0 0 1.172-.679 4.596 4.596 0 0 0 .4-2.22 4.664 4.664 0 0 0-.405-2.256 1.278 1.278 0 0 0-1.172-.693 1.306 1.306 0 0 0-1.182.698 4.623 4.623 0 0 0-.411 2.25 4.496 4.496 0 0 0 .41 2.216 1.309 1.309 0 0 0 1.188.684zm4.159-6.527h4.323l-.025.798h-3.507l-.185 2.33a2.132 2.132 0 0 1 .786-.473 2.903 2.903 0 0 1 .932-.145 2.708 2.708 0 0 1 1.207.27 2.124 2.124 0 0 1 .892.788 2.32 2.32 0 0 1 .336 1.287 2.52 2.52 0 0 1-.326 1.303 2.24 2.24 0 0 1-.917.863 2.996 2.996 0 0 1-1.387.304 3.235 3.235 0 0 1-1.243-.234 2.91 2.91 0 0 1-.982-.654 2.616 2.616 0 0 1-.596-.963l.802-.334a2.976 2.976 0 0 0 .45.728 1.991 1.991 0 0 0 .652.5 1.952 1.952 0 0 0 .852.179 1.716 1.716 0 0 0 1.237-.444 1.601 1.601 0 0 0 .47-1.218 1.543 1.543 0 0 0-.22-.833 1.52 1.52 0 0 0-.596-.559 1.707 1.707 0 0 0-.821-.2 2.605 2.605 0 0 0-.551.055 1.568 1.568 0 0 0-.506.2 2.431 2.431 0 0 0-.526.454.116.116 0 0 1-.045.015l-.05-.02-.782-.245z"/><path class="e2350cd7-dcaa-406f-ab24-d254b28d383e" d="M197.412 388.353a5.025 5.025 0 0 1-2.748-.674 2.698 2.698 0 0 1-1.211-2.096l1.98-.04a1.565 1.565 0 0 0 .67.98 2.386 2.386 0 0 0 1.302.331 2.136 2.136 0 0 0 .828-.148 1.454 1.454 0 0 0 .573-.416.957.957 0 0 0 .208-.603.909.909 0 0 0-.332-.772 2.624 2.624 0 0 0-1.022-.415l-1.544-.33a3.338 3.338 0 0 1-1.725-.85 2.363 2.363 0 0 1-.659-1.72 2.436 2.436 0 0 1 .476-1.524 3.136 3.136 0 0 1 1.322-1 4.848 4.848 0 0 1 1.882-.35 4.128 4.128 0 0 1 1.843.383 2.873 2.873 0 0 1 1.198 1.019 2.413 2.413 0 0 1 .41 1.407l-1.92.033a1.8 1.8 0 0 0-.418-.98 1.406 1.406 0 0 0-1.08-.356 2.636 2.636 0 0 0-.697.083 1.712 1.712 0 0 0-.528.24 1.07 1.07 0 0 0-.339.357.986.986 0 0 0-.11.467.819.819 0 0 0 .274.649 2.876 2.876 0 0 0 1.048.435l1.518.37a3.156 3.156 0 0 1 1.85 1.044 2.847 2.847 0 0 1 .572 1.797 2.302 2.302 0 0 1-.45 1.414 2.834 2.834 0 0 1-1.256.934 5.05 5.05 0 0 1-1.915.331zm-.814-10.853h1.648v1.687h-1.648zm-.032 10.275h1.64v1.688h-1.64zm9.858-8.932h1.87v5.716h1.452v1.589h-1.452v2.076h-1.83l.007-2.076h-4.338v-1.557zm-2.532 5.716h2.579v-3.44zm10.335-5.845a3.174 3.174 0 0 1 2.651 1.251 7.137 7.137 0 0 1 .013 7.162 3.496 3.496 0 0 1-5.34 0 5.738 5.738 0 0 1-.958-3.568 6.976 6.976 0 0 1 .443-2.64 3.55 3.55 0 0 1 1.258-1.642 3.307 3.307 0 0 1 1.933-.563zm0 8.101a1.299 1.299 0 0 0 1.232-.745 5.842 5.842 0 0 0 .39-2.511 6.068 6.068 0 0 0-.397-2.575 1.3 1.3 0 0 0-1.23-.778 1.327 1.327 0 0 0-1.245.784 5.983 5.983 0 0 0-.404 2.569 5.645 5.645 0 0 0 .404 2.504 1.329 1.329 0 0 0 1.25.752z"/><path class="f4ebd915-cb89-485a-b5aa-eafc9f928c18" d="M35.067 412.176h194.37a5 5 0 0 1 5.009 4.99v29.94a5 5 0 0 1-5.01 4.99H35.066a5 5 0 0 1-5.009-4.99v-29.94a5 5 0 0 1 5.01-4.99z"/><path class="ba03c4bf-a358-4633-83a4-9c54fb9695d8" d="M47.044 428.912h.927v7.216h-.927zm5.221 2.73h-1.167v3.208a1.118 1.118 0 0 0 .055.404.287.287 0 0 0 .196.16 1.665 1.665 0 0 0 .38.035h.566v.619a1.474 1.474 0 0 1-.29.06 3.696 3.696 0 0 1-.476.025 1.93 1.93 0 0 1-.832-.145.831.831 0 0 1-.415-.43 1.878 1.878 0 0 1-.116-.698v-3.238h-.841v-.674h.866l.226-1.502h.681v1.497h1.167zm1.779 2.12a2.357 2.357 0 0 0 .16.889 1.348 1.348 0 0 0 1.333.863 1.54 1.54 0 0 0 .851-.23 1.029 1.029 0 0 0 .461-.663h.877a1.744 1.744 0 0 1-.421.883 2.097 2.097 0 0 1-.787.544 2.628 2.628 0 0 1-.961.18 2.535 2.535 0 0 1-1.278-.315 2.19 2.19 0 0 1-.861-.903 2.985 2.985 0 0 1-.311-1.412 3.398 3.398 0 0 1 .28-1.427 2.207 2.207 0 0 1 .812-.958 2.332 2.332 0 0 1 1.287-.345 2.3 2.3 0 0 1 1.238.315 1.978 1.978 0 0 1 .766.888 3.17 3.17 0 0 1 .266 1.352v.34zm.005-.623h2.815a2.026 2.026 0 0 0-.15-.799 1.222 1.222 0 0 0-.461-.564 1.514 1.514 0 0 0-1.578.025 1.437 1.437 0 0 0-.476.594 1.805 1.805 0 0 0-.15.744zm4.902 2.989v-5.16h.892v.749a2.036 2.036 0 0 1 .59-.594 1.71 1.71 0 0 1 .978-.255 1.84 1.84 0 0 1 .57.095 1.734 1.734 0 0 1 .542.284 1.323 1.323 0 0 1 .38.465 1.791 1.791 0 0 1 .652-.61 1.832 1.832 0 0 1 .927-.234 2.04 2.04 0 0 1 .566.085 1.419 1.419 0 0 1 .546.29 1.466 1.466 0 0 1 .415.573 2.341 2.341 0 0 1 .16.938v3.374h-.931v-3.284a1.436 1.436 0 0 0-.15-.723.836.836 0 0 0-.396-.365 1.278 1.278 0 0 0-.516-.104 1.556 1.556 0 0 0-.511.094 1.05 1.05 0 0 0-.46.32.917.917 0 0 0-.191.614v3.448h-.922v-3.553a.785.785 0 0 0-.165-.51 1.012 1.012 0 0 0-.406-.309 1.195 1.195 0 0 0-.481-.104 1.474 1.474 0 0 0-.536.104 1.082 1.082 0 0 0-.45.335.913.913 0 0 0-.181.589v3.448zm12.903-7.166-1.087 7.18-.572-.08 1.093-7.165zm2.054 0-1.088 7.18-.57-.08 1.091-7.165zm.42 4.262v.563h-4.954v-.563zm.32-2.046v.564h-4.953v-.564zm3.391-2.366a2.212 2.212 0 0 1 1.874.943 5.857 5.857 0 0 1 .005 5.55 2.377 2.377 0 0 1-3.772.004 4.573 4.573 0 0 1-.697-2.76 5.777 5.777 0 0 1 .321-2.065 2.668 2.668 0 0 1 .902-1.252 2.273 2.273 0 0 1 1.367-.42zm0 6.627a1.278 1.278 0 0 0 1.173-.679 4.608 4.608 0 0 0 .4-2.22 4.664 4.664 0 0 0-.405-2.256 1.28 1.28 0 0 0-1.173-.693 1.305 1.305 0 0 0-1.182.698 4.611 4.611 0 0 0-.41 2.25 4.484 4.484 0 0 0 .41 2.216 1.307 1.307 0 0 0 1.187.684zm5.989-6.627a2.21 2.21 0 0 1 1.873.943 5.857 5.857 0 0 1 .005 5.55 2.377 2.377 0 0 1-3.772.004 4.58 4.58 0 0 1-.696-2.76 5.8 5.8 0 0 1 .32-2.065 2.682 2.682 0 0 1 .902-1.252 2.277 2.277 0 0 1 1.368-.42zm0 6.627a1.276 1.276 0 0 0 1.172-.679 4.596 4.596 0 0 0 .4-2.22 4.664 4.664 0 0 0-.405-2.256 1.278 1.278 0 0 0-1.172-.693 1.306 1.306 0 0 0-1.182.698 4.623 4.623 0 0 0-.411 2.25 4.496 4.496 0 0 0 .41 2.216 1.309 1.309 0 0 0 1.188.684zm6.235-6.627a2.7 2.7 0 0 1 1.107.225 2.197 2.197 0 0 1 .846.644 2.015 2.015 0 0 1 .416 1.013h-.872a1.536 1.536 0 0 0-.526-.814 1.5 1.5 0 0 0-.956-.3 1.605 1.605 0 0 0-1.072.365 2.068 2.068 0 0 0-.622 1.058 5.23 5.23 0 0 0-.135 1.707 1.756 1.756 0 0 1 .411-.64 1.94 1.94 0 0 1 .651-.428 2.066 2.066 0 0 1 .802-.155 2.668 2.668 0 0 1 1.252.28 2.008 2.008 0 0 1 .837.788 2.353 2.353 0 0 1 .3 1.217 2.592 2.592 0 0 1-.31 1.283 2.18 2.18 0 0 1-.872.868 2.714 2.714 0 0 1-1.338.315 2.488 2.488 0 0 1-1.462-.435 2.809 2.809 0 0 1-.957-1.237 5.046 5.046 0 0 1-.336-1.936 5.667 5.667 0 0 1 .326-2.016 2.902 2.902 0 0 1 .962-1.328 2.502 2.502 0 0 1 1.548-.474zm-.1 3.424a1.63 1.63 0 0 0-.762.19 1.697 1.697 0 0 0-.591.488 1.104 1.104 0 0 0-.226.674 2.29 2.29 0 0 0 .19.978 1.626 1.626 0 0 0 .562.669 1.476 1.476 0 0 0 .836.239 1.495 1.495 0 0 0 .792-.21 1.454 1.454 0 0 0 .54-.583 1.804 1.804 0 0 0 .201-.864 1.851 1.851 0 0 0-.18-.848 1.229 1.229 0 0 0-.521-.544 1.724 1.724 0 0 0-.842-.19z"/><path class="e2350cd7-dcaa-406f-ab24-d254b28d383e" d="M180.339 436.257a5.028 5.028 0 0 1-2.748-.674 2.698 2.698 0 0 1-1.212-2.096l1.98-.039a1.567 1.567 0 0 0 .671.98 2.386 2.386 0 0 0 1.303.33 2.127 2.127 0 0 0 .826-.148 1.44 1.44 0 0 0 .573-.415.951.951 0 0 0 .209-.604.908.908 0 0 0-.332-.772 2.623 2.623 0 0 0-1.023-.415l-1.543-.33a3.346 3.346 0 0 1-1.726-.85 2.362 2.362 0 0 1-.657-1.72 2.442 2.442 0 0 1 .475-1.524 3.133 3.133 0 0 1 1.322-.999 4.846 4.846 0 0 1 1.882-.35 4.132 4.132 0 0 1 1.843.382 2.873 2.873 0 0 1 1.199 1.019 2.405 2.405 0 0 1 .41 1.407l-1.921.033a1.807 1.807 0 0 0-.417-.98 1.408 1.408 0 0 0-1.081-.356 2.649 2.649 0 0 0-.697.084 1.706 1.706 0 0 0-.527.24 1.07 1.07 0 0 0-.34.356.975.975 0 0 0-.11.467.819.819 0 0 0 .273.65 2.891 2.891 0 0 0 1.05.434l1.516.37a3.152 3.152 0 0 1 1.85 1.044 2.84 2.84 0 0 1 .573 1.797 2.301 2.301 0 0 1-.45 1.414 2.838 2.838 0 0 1-1.257.934 5.042 5.042 0 0 1-1.914.331zm-.814-10.853h1.647v1.687h-1.647zm-.033 10.276h1.641v1.687h-1.64zm5.744.448v-1.414a2.658 2.658 0 0 1 .268-1.233 2.993 2.993 0 0 1 .703-.908 5.573 5.573 0 0 1 .964-.682q.527-.292 1.055-.55t.964-.52a2.736 2.736 0 0 0 .709-.59 1.164 1.164 0 0 0 .268-.766 1.184 1.184 0 0 0-.398-.921 1.534 1.534 0 0 0-1.074-.356 1.83 1.83 0 0 0-1.206.408 1.87 1.87 0 0 0-.612 1.232h-1.816a3.376 3.376 0 0 1 .417-1.621 2.914 2.914 0 0 1 1.224-1.161 4.363 4.363 0 0 1 2.045-.428 4.256 4.256 0 0 1 1.816.356 2.774 2.774 0 0 1 1.186.993 2.91 2.91 0 0 1 .156 2.705 2.78 2.78 0 0 1-.69.876 5.29 5.29 0 0 1-.944.636q-.516.272-1.03.506-.507.233-.937.48a2.477 2.477 0 0 0-.69.545 1.087 1.087 0 0 0-.26.732v.085h4.798v1.596zm8.988-9.38h6.05l-.071 1.55h-4.474l-.182 2.264a4.504 4.504 0 0 1 .99-.422 3.976 3.976 0 0 1 1.042-.13 3.85 3.85 0 0 1 1.686.357 2.77 2.77 0 0 1 1.185 1.031 3.02 3.02 0 0 1 .437 1.66 3.17 3.17 0 0 1-.45 1.713 2.938 2.938 0 0 1-1.276 1.11 4.505 4.505 0 0 1-1.947.39 5.035 5.035 0 0 1-1.72-.286 4.4 4.4 0 0 1-1.374-.778 3.391 3.391 0 0 1-.879-1.142l1.485-.876a4.679 4.679 0 0 0 .573.798 2.494 2.494 0 0 0 .736.558 2.275 2.275 0 0 0 .984.2 1.998 1.998 0 0 0 1.36-.447 1.476 1.476 0 0 0 .515-1.167 1.447 1.447 0 0 0-.234-.812 1.59 1.59 0 0 0-.632-.57 2.048 2.048 0 0 0-.944-.208 2.842 2.842 0 0 0-.547.052 1.89 1.89 0 0 0-.521.181 3.628 3.628 0 0 0-.58.377.398.398 0 0 1-.13.039.413.413 0 0 1-.13-.045l-1.382-.636zm11.66-.13a4.061 4.061 0 0 1 1.634.324 2.968 2.968 0 0 1 1.218.927 2.51 2.51 0 0 1 .52 1.453h-1.739a1.65 1.65 0 0 0-.573-.895 1.626 1.626 0 0 0-1.022-.311 1.676 1.676 0 0 0-1.127.383 2.125 2.125 0 0 0-.644 1.07 4.304 4.304 0 0 0-.104 1.603 1.921 1.921 0 0 1 .547-.526 2.646 2.646 0 0 1 .742-.338 3.096 3.096 0 0 1 .853-.116 3.717 3.717 0 0 1 1.674.357 2.677 2.677 0 0 1 1.12.999 2.817 2.817 0 0 1 .404 1.518 3.038 3.038 0 0 1-.456 1.648 3.185 3.185 0 0 1-1.257 1.141 4.034 4.034 0 0 1-1.869.415 3.661 3.661 0 0 1-2.07-.577 3.705 3.705 0 0 1-1.342-1.622 6.006 6.006 0 0 1-.463-2.452 6.892 6.892 0 0 1 .469-2.666 3.821 3.821 0 0 1 1.361-1.725 3.652 3.652 0 0 1 2.123-.61zm-.138 4.988a1.786 1.786 0 0 0-.781.181 1.825 1.825 0 0 0-.613.454.854.854 0 0 0-.234.558 2.595 2.595 0 0 0 .195 1.084 1.654 1.654 0 0 0 .574.694 1.532 1.532 0 0 0 .853.24 1.627 1.627 0 0 0 .82-.207 1.606 1.606 0 0 0 .593-.591 1.67 1.67 0 0 0 .221-.862 1.602 1.602 0 0 0-.214-.864 1.325 1.325 0 0 0-.586-.512 1.89 1.89 0 0 0-.828-.175zm8.596-4.988a4.062 4.062 0 0 1 1.636.324 2.965 2.965 0 0 1 1.217.927 2.497 2.497 0 0 1 .52 1.453h-1.737a1.65 1.65 0 0 0-.573-.895 1.627 1.627 0 0 0-1.023-.311 1.675 1.675 0 0 0-1.127.383 2.126 2.126 0 0 0-.645 1.07 4.325 4.325 0 0 0-.104 1.603 1.92 1.92 0 0 1 .547-.526 2.646 2.646 0 0 1 .742-.338 3.103 3.103 0 0 1 .854-.116 3.71 3.71 0 0 1 1.673.357 2.665 2.665 0 0 1 1.12.999 2.808 2.808 0 0 1 .404 1.518 3.03 3.03 0 0 1-.456 1.648 3.182 3.182 0 0 1-1.256 1.141 4.036 4.036 0 0 1-1.87.415 3.666 3.666 0 0 1-2.07-.577 3.711 3.711 0 0 1-1.342-1.622 6.023 6.023 0 0 1-.462-2.452 6.892 6.892 0 0 1 .469-2.666 3.826 3.826 0 0 1 1.36-1.725 3.656 3.656 0 0 1 2.123-.61zm-.136 4.988a1.786 1.786 0 0 0-.781.181 1.825 1.825 0 0 0-.612.454.854.854 0 0 0-.235.558 2.595 2.595 0 0 0 .196 1.084 1.654 1.654 0 0 0 .573.694 1.531 1.531 0 0 0 .852.24 1.59 1.59 0 0 0 1.414-.798 1.67 1.67 0 0 0 .221-.862 1.603 1.603 0 0 0-.215-.864 1.326 1.326 0 0 0-.586-.512 1.882 1.882 0 0 0-.827-.175z"/><path class="f4ebd915-cb89-485a-b5aa-eafc9f928c18" d="M35.067 460.08h194.37a5 5 0 0 1 5.009 4.99v29.94a5 5 0 0 1-5.01 4.99H35.066a5 5 0 0 1-5.009-4.99v-29.94a5 5 0 0 1 5.01-4.99z"/><path class="e2350cd7-dcaa-406f-ab24-d254b28d383e" d="M183.302 484.162a5.027 5.027 0 0 1-2.748-.675 2.698 2.698 0 0 1-1.211-2.096l1.98-.039a1.566 1.566 0 0 0 .671.98 2.386 2.386 0 0 0 1.302.33 2.128 2.128 0 0 0 .827-.148 1.44 1.44 0 0 0 .573-.415.95.95 0 0 0 .209-.604.908.908 0 0 0-.332-.771 2.624 2.624 0 0 0-1.023-.416l-1.543-.33a3.346 3.346 0 0 1-1.726-.85 2.362 2.362 0 0 1-.658-1.72 2.442 2.442 0 0 1 .475-1.524 3.132 3.132 0 0 1 1.323-.999 4.846 4.846 0 0 1 1.881-.35 4.132 4.132 0 0 1 1.844.382 2.873 2.873 0 0 1 1.198 1.02 2.404 2.404 0 0 1 .41 1.406l-1.92.033a1.806 1.806 0 0 0-.417-.98 1.408 1.408 0 0 0-1.081-.356 2.65 2.65 0 0 0-.698.084 1.705 1.705 0 0 0-.527.24 1.07 1.07 0 0 0-.338.357.975.975 0 0 0-.112.467.819.819 0 0 0 .274.648 2.891 2.891 0 0 0 1.049.435l1.517.37a3.152 3.152 0 0 1 1.85 1.045 2.84 2.84 0 0 1 .572 1.796 2.301 2.301 0 0 1-.448 1.414 2.837 2.837 0 0 1-1.258.934 5.041 5.041 0 0 1-1.915.332zm-.813-10.854h1.647v1.687h-1.647zm-.033 10.276h1.641v1.687h-1.641zm9.86-8.932h1.87v5.715h1.45v1.59h-1.45v2.075h-1.831l.007-2.076h-4.338V480.4zm-2.533 5.715h2.579v-3.439zm8.369 3.665v-7.026h-1.68v-1.07a4.624 4.624 0 0 0 1.302-.15 1.578 1.578 0 0 0 .748-.44 1.262 1.262 0 0 0 .294-.694h1.263v9.38zm7.262.143a4.013 4.013 0 0 1-1.642-.338 3.214 3.214 0 0 1-1.244-.947 2.586 2.586 0 0 1-.54-1.44h1.81a1.559 1.559 0 0 0 .521.888 1.528 1.528 0 0 0 1.016.338 2.19 2.19 0 0 0 1.186-.318 1.904 1.904 0 0 0 .768-1.012 4.392 4.392 0 0 0 .182-1.816 1.9 1.9 0 0 1-.508.603 2.413 2.413 0 0 1-.749.396 3.156 3.156 0 0 1-.957.136 3.884 3.884 0 0 1-1.7-.357 2.842 2.842 0 0 1-1.16-1.025 2.931 2.931 0 0 1-.416-1.582 3.013 3.013 0 0 1 1.68-2.77 4.023 4.023 0 0 1 1.863-.409 3.668 3.668 0 0 1 2.065.57 3.578 3.578 0 0 1 1.334 1.61 5.894 5.894 0 0 1 .47 2.445 7.113 7.113 0 0 1-.483 2.802 3.526 3.526 0 0 1-1.367 1.674 3.963 3.963 0 0 1-2.13.552zm.169-5.015a1.782 1.782 0 0 0 .768-.175 1.92 1.92 0 0 0 .618-.454.845.845 0 0 0 .242-.565 2.474 2.474 0 0 0-.202-1.077 1.546 1.546 0 0 0-.574-.693 1.516 1.516 0 0 0-.852-.24 1.554 1.554 0 0 0-.802.207 1.469 1.469 0 0 0-.553.584 1.817 1.817 0 0 0-.202.869 1.5 1.5 0 0 0 .43 1.142 1.582 1.582 0 0 0 1.127.402zm8.278 5.015a4.013 4.013 0 0 1-1.642-.338 3.203 3.203 0 0 1-1.243-.947 2.58 2.58 0 0 1-.54-1.44h1.81a1.559 1.559 0 0 0 .52.888 1.528 1.528 0 0 0 1.017.338 2.19 2.19 0 0 0 1.185-.318 1.903 1.903 0 0 0 .768-1.012 4.392 4.392 0 0 0 .183-1.816 1.9 1.9 0 0 1-.508.603 2.407 2.407 0 0 1-.749.396 3.163 3.163 0 0 1-.958.136 3.88 3.88 0 0 1-1.699-.357 2.83 2.83 0 0 1-1.16-1.025 2.923 2.923 0 0 1-.416-1.582 3.013 3.013 0 0 1 1.68-2.77 4.017 4.017 0 0 1 1.863-.409 3.666 3.666 0 0 1 2.064.57 3.586 3.586 0 0 1 1.335 1.61 5.895 5.895 0 0 1 .47 2.445 7.13 7.13 0 0 1-.483 2.802 3.538 3.538 0 0 1-1.367 1.674 3.969 3.969 0 0 1-2.13.552zm.169-5.015a1.782 1.782 0 0 0 .768-.175 1.935 1.935 0 0 0 .62-.454.849.849 0 0 0 .24-.565 2.489 2.489 0 0 0-.201-1.077 1.553 1.553 0 0 0-.573-.693 1.521 1.521 0 0 0-.854-.24 1.55 1.55 0 0 0-.8.207 1.471 1.471 0 0 0-.555.584 1.817 1.817 0 0 0-.201.869 1.5 1.5 0 0 0 .43 1.142 1.58 1.58 0 0 0 1.126.402zM15.103 12.42h233.444v113.772H15.103z"/></g><g style="clip-path:url(#a3590d05-15bd-459a-b083-304ba15b113e)"><path class="f4ebd915-cb89-485a-b5aa-eafc9f928c18" d="M35.067 92.814h194.37a5 5 0 0 1 5.009 4.99v45.909a5 5 0 0 1-5.01 4.99H35.066a5 5 0 0 1-5.009-4.99V97.804a5 5 0 0 1 5.01-4.99z"/><path class="ba03c4bf-a358-4633-83a4-9c54fb9695d8" d="M46.787 118.383v-.848h5.48v.848h-2.209v6.368h-.932v-6.368zm7.773 6.467a2.494 2.494 0 0 1-1.253-.304 2.079 2.079 0 0 1-.831-.903 3.233 3.233 0 0 1-.296-1.452 3.398 3.398 0 0 1 .276-1.418 2.103 2.103 0 0 1 .806-.943 2.631 2.631 0 0 1 2.54-.025 2.063 2.063 0 0 1 .822.914 3.378 3.378 0 0 1 .29 1.472 3.339 3.339 0 0 1-.27 1.387 2.105 2.105 0 0 1-.792.938 2.351 2.351 0 0 1-1.292.334zm0-.728a1.295 1.295 0 0 0 .786-.235 1.438 1.438 0 0 0 .486-.673 2.96 2.96 0 0 0 .165-1.043 3.172 3.172 0 0 0-.145-.993 1.466 1.466 0 0 0-.466-.704 1.262 1.262 0 0 0-.826-.26 1.322 1.322 0 0 0-.797.235 1.413 1.413 0 0 0-.496.669 2.991 2.991 0 0 0-.165 1.053 3.072 3.072 0 0 0 .15.988 1.488 1.488 0 0 0 .471.703 1.288 1.288 0 0 0 .837.26zm5.955-3.858h-1.167v3.21a1.096 1.096 0 0 0 .055.403.287.287 0 0 0 .195.16 1.66 1.66 0 0 0 .381.035h.566v.619a1.492 1.492 0 0 1-.29.06 3.708 3.708 0 0 1-.476.024 1.923 1.923 0 0 1-.832-.144.828.828 0 0 1-.416-.43 1.858 1.858 0 0 1-.115-.698v-3.239h-.842v-.673h.867l.226-1.502h.68v1.497h1.168zm2.647 4.586a2.126 2.126 0 0 1-.887-.174 1.434 1.434 0 0 1-.606-.514 1.646 1.646 0 0 1 .386-2.086 3.59 3.59 0 0 1 1.929-.45l.926-.024v-.404a.988.988 0 0 0-.285-.749 1.224 1.224 0 0 0-.887-.28 1.526 1.526 0 0 0-.786.21.982.982 0 0 0-.436.669h-.817a1.543 1.543 0 0 1 .286-.848 1.571 1.571 0 0 1 .711-.53 2.987 2.987 0 0 1 1.087-.179 2.876 2.876 0 0 1 1.122.19 1.372 1.372 0 0 1 .672.558 1.714 1.714 0 0 1 .225.909v3.602h-.791l-.066-.968a1.78 1.78 0 0 1-.766.839 2.254 2.254 0 0 1-1.017.23zm.28-.663a1.482 1.482 0 0 0 .517-.095 1.845 1.845 0 0 0 .475-.255 1.401 1.401 0 0 0 .341-.364.804.804 0 0 0 .135-.42v-.882l-.771.015a4.116 4.116 0 0 0-.992.12 1.166 1.166 0 0 0-.596.344.929.929 0 0 0-.195.613.826.826 0 0 0 .3.68 1.221 1.221 0 0 0 .787.244zm5.173.628a1.7 1.7 0 0 1-.68-.114.958.958 0 0 1-.397-.31 1.166 1.166 0 0 1-.185-.444 2.998 2.998 0 0 1-.045-.524v-6.088h.912v5.998a.947.947 0 0 0 .15.584.575.575 0 0 0 .43.215l.281.005v.599a1.834 1.834 0 0 1-.24.054 1.15 1.15 0 0 1-.226.025zm3.832 1.542v-6.766h.921l.01.898a2.547 2.547 0 0 1 .23-.334 1.923 1.923 0 0 1 .352-.325 1.892 1.892 0 0 1 .485-.244 1.99 1.99 0 0 1 .637-.095 2.07 2.07 0 0 1 1.092.284 1.854 1.854 0 0 1 .741.859 3.524 3.524 0 0 1 .266 1.467 3.852 3.852 0 0 1-.26 1.502 1.998 1.998 0 0 1-.742.928 2.088 2.088 0 0 1-1.172.32 1.765 1.765 0 0 1-.617-.1 1.672 1.672 0 0 1-.466-.25 1.987 1.987 0 0 1-.33-.34 2.722 2.722 0 0 1-.216-.344v2.54zm2.384-2.225a1.304 1.304 0 0 0 1.047-.484 2.939 2.939 0 0 0 .035-2.92 1.386 1.386 0 0 0-2.174.016 2.366 2.366 0 0 0-.37 1.387 2.927 2.927 0 0 0 .165 1.008 1.644 1.644 0 0 0 .49.723 1.224 1.224 0 0 0 .807.27zm4.851.718a2.126 2.126 0 0 1-.886-.174 1.434 1.434 0 0 1-.606-.514 1.646 1.646 0 0 1 .385-2.086 3.59 3.59 0 0 1 1.929-.45l.927-.024v-.404a.988.988 0 0 0-.286-.749 1.224 1.224 0 0 0-.886-.28 1.526 1.526 0 0 0-.787.21.982.982 0 0 0-.436.669h-.816a1.543 1.543 0 0 1 .285-.848 1.571 1.571 0 0 1 .712-.53 2.987 2.987 0 0 1 1.087-.179 2.876 2.876 0 0 1 1.122.19 1.372 1.372 0 0 1 .671.558 1.714 1.714 0 0 1 .225.909v3.602h-.791l-.065-.968a1.78 1.78 0 0 1-.767.839 2.254 2.254 0 0 1-1.017.23zm.281-.663a1.482 1.482 0 0 0 .516-.095 1.845 1.845 0 0 0 .476-.255 1.401 1.401 0 0 0 .34-.364.804.804 0 0 0 .136-.42v-.882l-.772.015a4.115 4.115 0 0 0-.992.12 1.166 1.166 0 0 0-.596.344.929.929 0 0 0-.195.613.826.826 0 0 0 .3.68 1.221 1.221 0 0 0 .787.244zm4.21 2.21a2.026 2.026 0 0 1-.626-.065l-.17-.065v-.598l.525.01a1.707 1.707 0 0 0 .481-.04.894.894 0 0 0 .306-.135.636.636 0 0 0 .175-.19 1.553 1.553 0 0 0 .106-.2l.18-.488-2.024-5.035h.937l1.528 3.982 1.518-3.982h.906l-2.184 5.549a2.6 2.6 0 0 1-.45.763 1.358 1.358 0 0 1-.552.384 1.91 1.91 0 0 1-.656.11zm4.754-1.647v-5.16h.892v.75a2.035 2.035 0 0 1 .59-.594 1.71 1.71 0 0 1 .978-.255 1.84 1.84 0 0 1 .57.095 1.734 1.734 0 0 1 .542.284 1.323 1.323 0 0 1 .38.464 1.791 1.791 0 0 1 .652-.608 1.832 1.832 0 0 1 .926-.235 2.04 2.04 0 0 1 .567.085 1.419 1.419 0 0 1 .546.29 1.466 1.466 0 0 1 .415.573 2.34 2.34 0 0 1 .16.938v3.374h-.931v-3.284a1.436 1.436 0 0 0-.15-.723.836.836 0 0 0-.396-.365 1.278 1.278 0 0 0-.516-.105 1.556 1.556 0 0 0-.511.095 1.05 1.05 0 0 0-.46.32.917.917 0 0 0-.191.613v3.449h-.922v-3.553a.785.785 0 0 0-.165-.51 1.012 1.012 0 0 0-.406-.309 1.195 1.195 0 0 0-.481-.105 1.475 1.475 0 0 0-.536.105 1.082 1.082 0 0 0-.45.335.912.912 0 0 0-.181.588v3.448zm9.253-2.365a2.377 2.377 0 0 0 .16.888 1.348 1.348 0 0 0 1.332.864 1.538 1.538 0 0 0 .852-.23 1.025 1.025 0 0 0 .46-.663h.878a1.745 1.745 0 0 1-.421.883 2.089 2.089 0 0 1-.787.544 2.62 2.62 0 0 1-.962.18 2.535 2.535 0 0 1-1.277-.315 2.197 2.197 0 0 1-.862-.903 2.998 2.998 0 0 1-.31-1.412 3.414 3.414 0 0 1 .28-1.428 2.207 2.207 0 0 1 .812-.958 2.332 2.332 0 0 1 1.287-.344 2.299 2.299 0 0 1 1.238.314 1.978 1.978 0 0 1 .766.889 3.17 3.17 0 0 1 .266 1.352v.34zm.005-.624H101a2.026 2.026 0 0 0-.15-.798 1.222 1.222 0 0 0-.461-.564 1.514 1.514 0 0 0-1.578.025 1.438 1.438 0 0 0-.476.594 1.805 1.805 0 0 0-.15.743zm4.902 2.99v-5.16h.897v.748a1.604 1.604 0 0 1 .345-.404 1.773 1.773 0 0 1 .541-.304 2.168 2.168 0 0 1 .737-.115 2.077 2.077 0 0 1 .901.195 1.488 1.488 0 0 1 .662.608 1.999 1.999 0 0 1 .25 1.058v3.373h-.927v-3.283a1.067 1.067 0 0 0-1.142-1.188 1.844 1.844 0 0 0-.656.115 1.125 1.125 0 0 0-.496.34.847.847 0 0 0-.19.568v3.448zm8.092-4.487h-1.167v3.21a1.118 1.118 0 0 0 .055.403.286.286 0 0 0 .196.16 1.666 1.666 0 0 0 .38.035h.566v.619a1.475 1.475 0 0 1-.29.06 3.697 3.697 0 0 1-.476.024 1.93 1.93 0 0 1-.832-.144.831.831 0 0 1-.415-.43 1.878 1.878 0 0 1-.116-.698v-3.239h-.841v-.673h.866l.226-1.502h.681v1.497h1.167z"/><path d="M160.561 127.944a7.738 7.738 0 0 1-4.228-1.038 4.151 4.151 0 0 1-1.863-3.223l3.045-.06a2.406 2.406 0 0 0 1.032 1.507 3.67 3.67 0 0 0 2.004.509 3.295 3.295 0 0 0 1.273-.23 2.225 2.225 0 0 0 .881-.639 1.466 1.466 0 0 0 .321-.928 1.398 1.398 0 0 0-.511-1.187 4.03 4.03 0 0 0-1.573-.639l-2.374-.509a5.132 5.132 0 0 1-2.656-1.307 3.63 3.63 0 0 1-1.011-2.645 3.742 3.742 0 0 1 .73-2.345 4.809 4.809 0 0 1 2.035-1.537 7.456 7.456 0 0 1 2.895-.54 6.348 6.348 0 0 1 2.836.59 4.42 4.42 0 0 1 1.843 1.566 3.711 3.711 0 0 1 .631 2.166l-2.955.05a2.782 2.782 0 0 0-.641-1.507 2.164 2.164 0 0 0-1.664-.549 4.028 4.028 0 0 0-1.072.13 2.592 2.592 0 0 0-.811.37 1.625 1.625 0 0 0-.521.548 1.493 1.493 0 0 0-.17.719 1.26 1.26 0 0 0 .42.998 4.439 4.439 0 0 0 1.613.668l2.335.57a4.848 4.848 0 0 1 2.845 1.606 4.38 4.38 0 0 1 .882 2.764 3.542 3.542 0 0 1-.691 2.176 4.369 4.369 0 0 1-1.934 1.437 7.8 7.8 0 0 1-2.946.51zm-1.252-16.696h2.535v2.594h-2.535zm-.05 15.808h2.525v2.595h-2.525zm13.905.908a6.161 6.161 0 0 1-2.525-.519 4.936 4.936 0 0 1-1.913-1.457 3.969 3.969 0 0 1-.832-2.216h2.785a2.407 2.407 0 0 0 .802 1.368 2.352 2.352 0 0 0 1.563.519 3.363 3.363 0 0 0 1.823-.49 2.931 2.931 0 0 0 1.183-1.556 6.742 6.742 0 0 0 .28-2.795 2.966 2.966 0 0 1-.781.929 3.735 3.735 0 0 1-1.152.608 4.86 4.86 0 0 1-1.473.21 5.961 5.961 0 0 1-2.615-.549 4.357 4.357 0 0 1-1.784-1.577 4.505 4.505 0 0 1-.64-2.435 4.635 4.635 0 0 1 2.584-4.261 6.184 6.184 0 0 1 2.866-.63 5.637 5.637 0 0 1 3.176.879 5.52 5.52 0 0 1 2.053 2.475 9.073 9.073 0 0 1 .722 3.763 10.962 10.962 0 0 1-.742 4.31 5.44 5.44 0 0 1-2.104 2.576 6.104 6.104 0 0 1-3.276.848zm.26-7.714a2.74 2.74 0 0 0 1.183-.27 2.97 2.97 0 0 0 .952-.699 1.302 1.302 0 0 0 .37-.868 3.805 3.805 0 0 0-.31-1.657 2.387 2.387 0 0 0-.882-1.067 2.33 2.33 0 0 0-1.312-.37 2.381 2.381 0 0 0-1.233.32 2.256 2.256 0 0 0-.851.898 2.781 2.781 0 0 0-.31 1.337 2.308 2.308 0 0 0 .66 1.757 2.436 2.436 0 0 0 1.734.619zm7.725 7.495v-2.176a4.1 4.1 0 0 1 .411-1.896 4.616 4.616 0 0 1 1.082-1.398 8.625 8.625 0 0 1 1.483-1.047q.812-.45 1.623-.849.812-.4 1.483-.798a4.187 4.187 0 0 0 1.092-.908 1.797 1.797 0 0 0 .41-1.178 1.817 1.817 0 0 0-.61-1.417 2.358 2.358 0 0 0-1.653-.55 2.816 2.816 0 0 0-1.854.63 2.87 2.87 0 0 0-.942 1.896h-2.795a5.21 5.21 0 0 1 .641-2.495 4.486 4.486 0 0 1 1.884-1.787 6.714 6.714 0 0 1 3.146-.658 6.538 6.538 0 0 1 2.795.549 4.267 4.267 0 0 1 1.823 1.527 4.48 4.48 0 0 1 .24 4.161 4.285 4.285 0 0 1-1.061 1.348 8.159 8.159 0 0 1-1.453.978q-.792.419-1.583.778-.781.36-1.443.739a3.855 3.855 0 0 0-1.062.838 1.676 1.676 0 0 0-.4 1.128v.13h7.384v2.454zm17.905-14.631a4.879 4.879 0 0 1 4.078 1.926 10.975 10.975 0 0 1 .02 11.018 5.38 5.38 0 0 1-8.215 0 8.83 8.83 0 0 1-1.473-5.49 10.75 10.75 0 0 1 .681-4.061 5.466 5.466 0 0 1 1.934-2.525 5.095 5.095 0 0 1 2.975-.868zm0 12.465a1.997 1.997 0 0 0 1.894-1.148 8.982 8.982 0 0 0 .601-3.862 9.326 9.326 0 0 0-.611-3.962 2 2 0 0 0-1.894-1.198 2.04 2.04 0 0 0-1.913 1.208 9.214 9.214 0 0 0-.621 3.952 8.7 8.7 0 0 0 .62 3.852 2.046 2.046 0 0 0 1.924 1.158zm13.675-12.266h2.876v8.793h2.234v2.445h-2.234v3.194h-2.815l.01-3.194h-6.673v-2.395zm-3.897 8.793h3.967v-5.29z" style="fill:#ba4270"/></g><path class="a2ab271b-8bc1-4c80-9aeb-d8a57950481d" d="M174.379 51.322v-2.076h-.77v2.076zm-53.226 15.975v-4.94h.04a3.386 3.386 0 0 0 1.347 1.159 4.102 4.102 0 0 0 1.792.393 4.333 4.333 0 0 0 2.015-.444 4.263 4.263 0 0 0 1.437-1.19 5.118 5.118 0 0 0 .86-1.714 7.131 7.131 0 0 0 .284-2.017 7.882 7.882 0 0 0-.283-2.128 5.168 5.168 0 0 0-.871-1.785 4.377 4.377 0 0 0-1.478-1.23 4.548 4.548 0 0 0-2.126-.465 4.115 4.115 0 0 0-1.782.383 3.162 3.162 0 0 0-1.337 1.23h-.04v-1.33h-2.733v14.078zm2.41-5.527a2.299 2.299 0 0 1-1.175-.282 2.273 2.273 0 0 1-.78-.736 3.167 3.167 0 0 1-.425-1.058 5.743 5.743 0 0 1-.132-1.231 6.326 6.326 0 0 1 .122-1.25 3.144 3.144 0 0 1 .415-1.07 2.348 2.348 0 0 1 .77-.756 2.22 2.22 0 0 1 1.184-.292 2.176 2.176 0 0 1 1.164.292 2.421 2.421 0 0 1 .78.767 3.253 3.253 0 0 1 .435 1.078 5.742 5.742 0 0 1 .132 1.231 6.22 6.22 0 0 1-.122 1.23 3.036 3.036 0 0 1-.414 1.06 2.184 2.184 0 0 1-1.954 1.017zm11.953 1.857a6.548 6.548 0 0 1-1.904.282 5.17 5.17 0 0 1-1.397-.181 3.2 3.2 0 0 1-1.134-.565 2.633 2.633 0 0 1-.76-.968 3.263 3.263 0 0 1-.273-1.393 3.04 3.04 0 0 1 .314-1.462 2.63 2.63 0 0 1 .81-.918 3.64 3.64 0 0 1 1.135-.514 12.419 12.419 0 0 1 1.285-.272q.648-.1 1.275-.161a7.77 7.77 0 0 0 1.115-.182 1.951 1.951 0 0 0 .769-.353.777.777 0 0 0 .263-.676 1.516 1.516 0 0 0-.152-.736 1.114 1.114 0 0 0-.405-.423 1.59 1.59 0 0 0-.587-.202 4.794 4.794 0 0 0-.72-.05 2.187 2.187 0 0 0-1.336.363 1.621 1.621 0 0 0-.567 1.21h-2.874a3.31 3.31 0 0 1 .506-1.675 3.43 3.43 0 0 1 1.134-1.068 4.972 4.972 0 0 1 1.549-.575 8.795 8.795 0 0 1 1.731-.172 11.792 11.792 0 0 1 1.6.11 4.9 4.9 0 0 1 1.478.435 2.908 2.908 0 0 1 1.093.897 2.502 2.502 0 0 1 .425 1.523v5.426a10.836 10.836 0 0 0 .081 1.352 2.452 2.452 0 0 0 .284.968h-2.916a3.988 3.988 0 0 1-.131-.494 4.138 4.138 0 0 1-.071-.515 3.749 3.749 0 0 1-1.62.989zm-.83-1.614a3.587 3.587 0 0 1-.67-.06 1.615 1.615 0 0 1-.565-.213 1.079 1.079 0 0 1-.385-.413 1.336 1.336 0 0 1-.142-.645 1.383 1.383 0 0 1 .142-.666 1.284 1.284 0 0 1 .374-.433 1.869 1.869 0 0 1 .547-.273 5.021 5.021 0 0 1 .638-.161q.344-.06.688-.101.344-.04.658-.1a4.531 4.531 0 0 0 .588-.153 1.284 1.284 0 0 0 .455-.251v1.069a5.41 5.41 0 0 1-.05.645 2.168 2.168 0 0 1-.274.797 1.89 1.89 0 0 1-.688.676 2.547 2.547 0 0 1-1.317.282zm11.142 4.74a4.18 4.18 0 0 1-2.308.544q-.445 0-.88-.03c-.29-.02-.585-.043-.881-.07v-2.36l.83.08a5.907 5.907 0 0 0 .85.02 1.116 1.116 0 0 0 .84-.443 1.426 1.426 0 0 0 .274-.847 1.713 1.713 0 0 0-.121-.646l-3.665-9.782h3.057l2.369 7.14h.041l2.287-7.14h2.977l-4.373 11.718a3.522 3.522 0 0 1-1.297 1.816zm9.524-2.864a4.954 4.954 0 0 0 1.377-.181 4.194 4.194 0 0 0 1.124-.505 3.712 3.712 0 0 0 .84-.736 3.242 3.242 0 0 0 .527-.877h.04v.544a3.22 3.22 0 0 0 .05.594 1.168 1.168 0 0 0 .193.475.97.97 0 0 0 .415.323 1.858 1.858 0 0 0 .74.12 2.429 2.429 0 0 0 .627-.08v-.646a3.635 3.635 0 0 1-.567.061.644.644 0 0 1-.405-.11.605.605 0 0 1-.203-.293 1.505 1.505 0 0 1-.07-.403c-.007-.15-.01-.297-.01-.445V55.7a2.412 2.412 0 0 0-.861-1.927 4.175 4.175 0 0 0-2.744-.736 4.409 4.409 0 0 0-2.906.857 3.391 3.391 0 0 0-1.103 2.572h.77a2.71 2.71 0 0 1 .941-2.078 3.514 3.514 0 0 1 2.257-.685 4.768 4.768 0 0 1 1.337.161 2.503 2.503 0 0 1 .89.444 1.766 1.766 0 0 1 .508.645 1.924 1.924 0 0 1 .16.787 5.713 5.713 0 0 1-.06.908 1.041 1.041 0 0 1-.303.595 1.677 1.677 0 0 1-.72.363 7.011 7.011 0 0 1-1.305.191l-1.195.101a12.067 12.067 0 0 0-1.305.202 3.952 3.952 0 0 0-1.236.474 2.758 2.758 0 0 0-.922.908 2.729 2.729 0 0 0-.364 1.482 2.634 2.634 0 0 0 .912 2.209 4.076 4.076 0 0 0 2.571.716zm-1.984-1.22a3.243 3.243 0 0 0 2.004.555 3.959 3.959 0 0 0 2.085-.475 3.698 3.698 0 0 0 1.176-1.09 3.346 3.346 0 0 0 .516-1.189 5.076 5.076 0 0 0 .11-.776v-1.937a1.455 1.455 0 0 1-.86.464 10.645 10.645 0 0 1-1.285.181l-1.297.122q-.566.06-1.133.17a3.302 3.302 0 0 0-1.023.374 2.096 2.096 0 0 0-.74.716 2.203 2.203 0 0 0-.283 1.18 2.006 2.006 0 0 0 .73 1.705zm9.907 4.69v-5.871h.04a3.304 3.304 0 0 0 1.48 1.836 4.662 4.662 0 0 0 2.308.565 4.934 4.934 0 0 0 2.075-.404 3.948 3.948 0 0 0 1.458-1.119 4.796 4.796 0 0 0 .861-1.704 7.91 7.91 0 0 0 .283-2.179 7.533 7.533 0 0 0-.283-2.078 5.116 5.116 0 0 0-.86-1.734 4.2 4.2 0 0 0-1.46-1.19 4.55 4.55 0 0 0-2.074-.444 4.003 4.003 0 0 0-2.633.918 3.553 3.553 0 0 0-.749.857 3.95 3.95 0 0 0-.405.848h-.04v-2.38h-.77v14.078zm1.995-4.53a3.862 3.862 0 0 0 1.833.395 3.757 3.757 0 0 0 1.751-.384 3.474 3.474 0 0 0 1.215-1.029 4.496 4.496 0 0 0 .709-1.503 7.118 7.118 0 0 0 .01-3.57 4.79 4.79 0 0 0-.689-1.533 3.539 3.539 0 0 0-1.205-1.088 4.065 4.065 0 0 0-3.553-.011 3.413 3.413 0 0 0-1.185 1.07 4.503 4.503 0 0 0-.658 1.522 7.785 7.785 0 0 0-.203 1.785 8.586 8.586 0 0 0 .183 1.785 4.33 4.33 0 0 0 .618 1.513 3.156 3.156 0 0 0 1.174 1.048zm8.34-9.55h.769v10.368h-.77z"/><ellipse class="a4e2cfb6-c394-4a39-8deb-9a623a0abcf8" cx="101.283" cy="49.06" rx="1.898" ry="1.891"/><ellipse class="a4e2cfb6-c394-4a39-8deb-9a623a0abcf8" cx="105.757" cy="53.517" rx="1.898" ry="1.891"/><ellipse class="a4e2cfb6-c394-4a39-8deb-9a623a0abcf8" cx="110.232" cy="57.974" rx="1.898" ry="1.891"/><ellipse class="a4e2cfb6-c394-4a39-8deb-9a623a0abcf8" cx="96.808" cy="53.517" rx="1.898" ry="1.891"/><ellipse class="b03ce628-4373-40f2-b954-0e3cb3cc7ef4" cx="101.283" cy="57.974" rx="1.898" ry="1.891"/><ellipse class="b03ce628-4373-40f2-b954-0e3cb3cc7ef4" cx="105.757" cy="62.431" rx="1.898" ry="1.891"/><ellipse class="a4e2cfb6-c394-4a39-8deb-9a623a0abcf8" cx="92.334" cy="57.974" rx="1.898" ry="1.891"/><ellipse class="b03ce628-4373-40f2-b954-0e3cb3cc7ef4" cx="96.808" cy="62.431" rx="1.898" ry="1.891"/><ellipse cx="101.283" cy="66.888" rx="1.898" ry="1.891" style="opacity:.25;isolation:isolate;fill:#fff"/></svg>